 <svg
      xmlns="http://www.w3.org/2000/svg"
      className="h-12"
      viewBox="0 0 70 46"
      fill="none"
    >
      <path
        d="M56.043 39.9786V13.1318L60.0136 16.6926V32.2568L64.4077 27.2141H69.2783L64.1695 32.966L69.4106 39.9786H64.4077L60.0665 33.5175H60.0136V39.9786H56.043Z"
        fill="white"
      />
      <path
        d="M46.3171 40.0119V27.2473H50.2877V29.2959H50.3407C51.1877 27.7463 52.2995 26.9321 54.0466 26.9321C54.4966 26.9321 54.9995 26.9584 55.3701 27.0635V30.6617C54.8142 30.5041 54.2583 30.399 53.676 30.399C50.6583 30.399 50.2877 32.1325 50.2877 34.6802V40.0119H46.3171Z"
        fill="white"
      />
      <path
        d="M40.173 40.0119V38.4097H40.12C39.2465 39.7755 37.6582 40.327 36.0435 40.327C33.6347 40.327 31.4641 38.9613 31.4641 36.3874C31.4641 31.9749 36.8641 31.8961 40.173 31.8961C40.173 30.5041 39.0082 29.6111 37.6318 29.6111C36.3347 29.6111 35.2494 30.1889 34.4024 31.1345L32.2847 28.9808C33.7406 27.615 35.8582 26.9321 37.9494 26.9321C42.5818 26.9321 43.8259 29.2697 43.8259 33.5245V40.0119H40.173ZM40.173 34.4175H39.1935C37.9759 34.4175 35.2759 34.5226 35.2759 36.256C35.2759 37.2016 36.2818 37.6481 37.1553 37.6481C38.7171 37.6481 40.173 36.8339 40.173 35.258V34.4175Z"
        fill="white"
      />
      <path
        d="M15.7966 46.0002V27.2473H19.4496V28.9282H19.5025C20.1114 28.009 21.6467 26.9321 23.4467 26.9321C27.2584 26.9321 29.7731 29.6636 29.7731 33.5245C29.7731 37.0702 27.5496 40.327 23.8967 40.327C22.2555 40.327 20.7202 39.8805 19.8202 38.6461H19.7672V46.0002H15.7966ZM19.4496 33.6296C19.4496 35.5469 20.6408 36.8601 22.6261 36.8601C24.6114 36.8601 25.8025 35.5469 25.8025 33.6296C25.8025 31.7123 24.6114 30.399 22.6261 30.399C20.6408 30.399 19.4496 31.7123 19.4496 33.6296Z"
        fill="white"
      />
      <path
        d="M7.34492 30.8863H5.19754L8.17996 30.0599L13.3341 24.9521L2.5485 28.2077L0.24342 31.5471L1.85211 35.3962H4.41224L6.31727 34.1041L0 42.9518L12.1149 34.7355L10.5062 30.8863H7.34492Z"
        fill="#FFD600"
      />
      <path
        d="M69.9999 0V19.856H66.347V18.175H66.2941C65.6852 19.0943 64.1499 20.1712 62.3499 20.1712C58.5381 20.1712 56.0234 17.4396 56.0234 13.5788C56.0234 10.033 58.247 6.77625 61.8999 6.77625C63.5411 6.77625 65.0764 7.22274 65.9764 8.45718H66.0293V0H69.9999ZM66.347 13.4737C66.347 11.5564 65.1558 10.2432 63.1705 10.2432C61.1852 10.2432 59.994 11.5564 59.994 13.4737C59.994 15.391 61.1852 16.7042 63.1705 16.7042C65.1558 16.7042 66.347 15.391 66.347 13.4737Z"
        fill="white"
      />
      <path
        d="M41.3 19.8561V7.09154H45.1118V8.825H45.1648C45.6942 7.82695 46.9912 6.77637 48.9236 6.77637C52.9471 6.77637 53.6883 9.40282 53.6883 12.8172V19.8561H49.7177V13.6051C49.7177 12.1343 49.6912 10.2433 47.653 10.2433C45.5883 10.2433 45.2706 11.8454 45.2706 13.5001V19.8561H41.3Z"
        fill="white"
      />
      <path
        d="M35.1559 19.8561V18.254H35.1029C34.2294 19.6197 32.6412 20.1713 31.0264 20.1713C28.6176 20.1713 26.447 18.8055 26.447 16.2316C26.447 11.8192 31.847 11.7404 35.1559 11.7404C35.1559 10.3483 33.9912 9.45535 32.6147 9.45535C31.3176 9.45535 30.2323 10.0332 29.3853 10.9787L27.2676 8.825C28.7235 7.45924 30.8412 6.77637 32.9323 6.77637C37.5647 6.77637 38.8088 9.11391 38.8088 13.3688V19.8561H35.1559ZM35.1559 14.2618H34.1765C32.9588 14.2618 30.2588 14.3668 30.2588 16.1003C30.2588 17.0458 31.2647 17.4923 32.1382 17.4923C33.7 17.4923 35.1559 16.6781 35.1559 15.1022V14.2618Z"
        fill="white"
      />
      <path
        d="M16.3027 19.8561V7.09154H20.2733V9.14017H20.3263C21.1733 7.59057 22.2851 6.77637 24.0322 6.77637C24.4822 6.77637 24.9851 6.80263 25.3557 6.90769V10.5059C24.7998 10.3483 24.2439 10.2433 23.6616 10.2433C20.6439 10.2433 20.2733 11.9767 20.2733 14.5244V19.8561H16.3027Z"
        fill="white"
      />
      <path
        d="M0 19.856V0H3.9706V8.45718H4.02354C4.92354 7.22274 6.45884 6.77625 8.10002 6.77625C11.753 6.77625 13.9765 10.033 13.9765 13.5788C13.9765 17.4396 11.4618 20.1712 7.65002 20.1712C5.85002 20.1712 4.31472 19.0943 3.70589 18.175H3.65295V19.856H0ZM3.65295 13.4737C3.65295 15.391 4.84413 16.7042 6.82943 16.7042C8.81473 16.7042 10.0059 15.391 10.0059 13.4737C10.0059 11.5564 8.81473 10.2432 6.82943 10.2432C4.84413 10.2432 3.65295 11.5564 3.65295 13.4737Z"
        fill="white"
      />
    </svg>