<svg width="407" height="363" viewBox="0 0 407 363" fill="none" xmlns="http://www.w3.org/2000/svg">
<g clip-path="url(#clip0_772_522)">
<mask id="mask0_772_522" style="mask-type:luminance" maskUnits="userSpaceOnUse" x="0" y="0" width="407" height="363">
<path d="M406.39 0.183594H0V362.364H406.39V0.183594Z" fill="white"/>
</mask>
<g mask="url(#mask0_772_522)">
<path d="M113.157 -33.4941C113.157 -33.4941 67.7441 -32.4794 70.6572 30.0059C72.1137 61.2485 72.019 73.0255 71.5634 76.9746L122.844 75.0996L174.126 76.9746C173.67 73.0255 173.575 61.2485 175.032 30.0059C177.945 -32.4794 132.501 -33.4941 132.501 -33.4941C132.342 -33.3975 132.191 -33.3658 132.032 -33.2754C132.08 -33.3407 132.211 -33.3629 132.251 -33.4316C132.251 -33.4316 131.64 -33.1157 131.157 -32.8691C130.922 -32.7513 130.703 -32.6306 130.469 -32.5254C129.024 -31.8943 126.79 -31.1597 124.063 -30.9316C123.652 -30.9118 123.24 -30.8932 122.844 -30.9004C122.453 -30.8931 122.032 -30.9124 121.626 -30.9316C118.925 -31.1575 116.698 -31.8975 115.251 -32.5254C115.002 -32.6369 114.751 -32.7433 114.501 -32.8691C114.024 -33.1126 113.438 -33.4316 113.438 -33.4316C113.485 -33.3509 113.631 -33.3201 113.688 -33.2441C113.509 -33.3451 113.336 -33.3853 113.157 -33.4941ZM174.126 76.9746C174.581 80.9237 175.407 77.0371 175.407 77.0371L174.126 76.9746ZM71.5634 76.9746L70.2822 77.0371C70.2822 77.0371 71.1079 80.9237 71.5634 76.9746Z" fill="url(#paint0_linear_772_522)"/>
<path d="M255.776 -20.2158C255.776 -20.2158 210.363 -19.201 213.276 43.2842C214.732 74.5268 214.637 86.3038 214.182 90.2529L265.463 88.3779L316.744 90.2529C316.289 86.3038 316.194 74.5268 317.651 43.2842C320.564 -19.201 275.119 -20.2158 275.119 -20.2158C274.96 -20.1192 274.809 -20.0875 274.651 -19.9971C274.698 -20.0624 274.829 -20.0845 274.869 -20.1533C274.869 -20.1533 274.259 -19.8374 273.776 -19.5908C273.541 -19.473 273.322 -19.3523 273.088 -19.2471C271.643 -18.6159 269.409 -17.8814 266.682 -17.6533C266.271 -17.6335 265.859 -17.6149 265.463 -17.6221C265.071 -17.6148 264.651 -17.6341 264.244 -17.6533C261.544 -17.8792 259.316 -18.6192 257.869 -19.2471C257.62 -19.3585 257.37 -19.465 257.119 -19.5908C256.643 -19.8343 256.057 -20.1533 256.057 -20.1533C256.104 -20.0726 256.249 -20.0418 256.307 -19.9658C256.128 -20.0668 255.955 -20.1069 255.776 -20.2158ZM316.744 90.2529C317.2 94.2021 318.026 90.3154 318.026 90.3154L316.744 90.2529ZM214.182 90.2529L212.901 90.3154C212.901 90.3154 213.726 94.2021 214.182 90.2529Z" fill="url(#paint1_linear_772_522)"/>
<path d="M96.1359 -2.33858C94.8124 -6.22642 95.5086 -9.98037 97.6909 -10.7234C99.8733 -11.4663 102.715 -8.9168 104.039 -5.02896C105.362 -1.14112 104.666 2.61286 102.484 3.35579C100.301 4.09872 97.4595 1.54926 96.1359 -2.33858Z" fill="#866A56"/>
<path d="M150.398 -2.33858C151.722 -6.22642 151.026 -9.98037 148.843 -10.7234C146.661 -11.4663 143.819 -8.9168 142.495 -5.02896C141.172 -1.14112 141.868 2.61286 144.05 3.35579C146.233 4.09872 149.075 1.54926 150.398 -2.33858Z" fill="#866A56"/>
<path d="M113.765 14.3769L113.691 30.2431C113.691 30.2431 120.457 37.7612 132.244 31.0454L132.215 13.3941C132.215 13.3941 115.807 3.59552 113.765 14.3769Z" fill="#866A56"/>
<path d="M113.157 28.9302C113.157 28.9302 67.7441 29.945 70.6572 92.4302C72.1137 123.673 72.019 135.45 71.5634 139.399L122.844 137.524L174.126 139.399C173.67 135.45 173.575 123.673 175.032 92.4302C177.945 29.945 132.501 28.9302 132.501 28.9302C132.342 29.0268 132.191 29.0585 132.032 29.1489C132.08 29.0836 132.211 29.0614 132.251 28.9927C132.251 28.9927 131.64 29.3086 131.157 29.5552C130.922 29.673 130.703 29.7937 130.469 29.8989C129.024 30.53 126.79 31.2646 124.063 31.4927C123.652 31.5125 123.24 31.5311 122.844 31.5239C122.453 31.5312 122.032 31.5119 121.626 31.4927C118.925 31.2668 116.698 30.5268 115.251 29.8989C115.002 29.7874 114.751 29.681 114.501 29.5552C114.024 29.3117 113.438 28.9927 113.438 28.9927C113.485 29.0734 113.631 29.1042 113.688 29.1802C113.509 29.0792 113.336 29.039 113.157 28.9302ZM174.126 139.399C174.581 143.348 175.407 139.461 175.407 139.461L174.126 139.399ZM71.5634 139.399L70.2822 139.461C70.2822 139.461 71.1079 143.348 71.5634 139.399Z" fill="url(#paint2_linear_772_522)"/>
<path d="M96.8525 -16.1251C96.8525 -30.6977 108.666 -42.5112 123.239 -42.5112C137.811 -42.5112 149.625 -30.6977 149.625 -16.1251C149.625 -1.55249 137.811 17.9265 123.239 17.9265C108.666 17.9265 96.8525 -1.55249 96.8525 -16.1251Z" fill="black"/>
<g filter="url(#filter0_f_772_522)">
<path d="M24.2002 -8.77979C24.2002 -8.77979 -21.213 -7.76501 -18.2998 54.7202C-16.8433 85.9628 -16.938 97.7398 -17.3936 101.689L33.8877 99.8139L85.1689 101.689C84.7134 97.7398 84.6186 85.9628 86.0752 54.7202C88.9883 -7.76501 43.5439 -8.77979 43.5439 -8.77979C43.3849 -8.6832 43.2339 -8.65146 43.0752 -8.56104C43.1229 -8.62637 43.2537 -8.64853 43.2939 -8.71729C43.2939 -8.71729 42.6836 -8.40137 42.2002 -8.15479C41.9654 -8.03698 41.7463 -7.91626 41.5127 -7.81103C40.0673 -7.17992 37.8332 -6.44537 35.1064 -6.21728C34.6956 -6.19744 34.2835 -6.17886 33.8877 -6.18603C33.4957 -6.1788 33.0756 -6.19805 32.6689 -6.21728C29.9682 -6.44319 27.7409 -7.18319 26.2939 -7.81103C26.0449 -7.92253 25.7942 -8.02901 25.5439 -8.15479C25.0675 -8.3983 24.4814 -8.71729 24.4814 -8.71729C24.5286 -8.63659 24.674 -8.60577 24.7314 -8.52979C24.5525 -8.63082 24.3794 -8.67093 24.2002 -8.77979ZM85.1689 101.689C85.6245 105.638 86.4502 101.751 86.4502 101.751L85.1689 101.689ZM-17.3936 101.689L-18.6748 101.751C-18.6748 101.751 -17.8491 105.638 -17.3936 101.689Z" fill="url(#paint3_linear_772_522)"/>
<path d="M7.89564 -53.8351C7.89564 -68.4077 19.7091 -80.2212 34.2817 -80.2212C48.8543 -80.2212 60.6678 -68.4077 60.6678 -53.8351C60.6678 -43.7844 63.0166 26.9764 54.1179 40.89C50.1142 47.15 16.944 45.6926 12.9848 40.344C2.77314 26.5487 7.89564 -43.334 7.89564 -53.8351Z" fill="black"/>
</g>
<g filter="url(#filter1_f_772_522)">
<path d="M176.486 -2.33858C175.163 -6.22642 175.859 -9.98037 178.041 -10.7234C180.224 -11.4663 183.066 -8.9168 184.389 -5.02896C185.713 -1.14112 185.017 2.61286 182.834 3.35579C180.652 4.09872 177.81 1.54926 176.486 -2.33858Z" fill="#AF8E76"/>
<path d="M230.749 -2.33858C232.072 -6.22642 231.377 -9.98037 229.195 -10.7234C227.013 -11.4663 224.169 -8.9168 222.846 -5.02896C221.522 -1.14112 222.22 2.61286 224.402 3.35579C226.584 4.09872 229.425 1.54926 230.749 -2.33858Z" fill="#AF8E76"/>
<path d="M194.115 14.3769L194.042 30.2431C194.042 30.2431 200.808 37.7612 212.594 31.0454L212.566 13.3941C212.566 13.3941 196.157 3.59552 194.115 14.3769Z" fill="#AF8E76"/>
<path d="M193.507 28.9302C193.507 28.9302 148.094 29.945 151.007 92.4302C152.464 123.673 152.369 135.45 151.914 139.399L203.195 137.524L254.476 139.399C254.021 135.45 253.926 123.673 255.382 92.4302C258.296 29.945 212.851 28.9302 212.851 28.9302C212.692 29.0268 212.541 29.0585 212.382 29.1489C212.43 29.0836 212.561 29.0614 212.601 28.9927C212.601 28.9927 211.991 29.3086 211.507 29.5552C211.273 29.673 211.054 29.7937 210.82 29.8989C209.375 30.53 207.141 31.2646 204.414 31.4927C204.003 31.5125 203.591 31.5311 203.195 31.5239C202.803 31.5312 202.383 31.5119 201.976 31.4927C199.276 31.2668 197.048 30.5268 195.601 29.8989C195.352 29.7874 195.102 29.681 194.851 29.5552C194.375 29.3117 193.789 28.9927 193.789 28.9927C193.836 29.0734 193.981 29.1042 194.039 29.1802C193.86 29.0792 193.687 29.039 193.507 28.9302ZM254.476 139.399C254.932 143.348 255.758 139.461 255.757 139.461L254.476 139.399ZM151.914 139.399L150.632 139.461C150.632 139.461 151.458 143.348 151.914 139.399Z" fill="url(#paint4_linear_772_522)"/>
<path d="M177.203 -16.1251C177.203 -30.6977 189.016 -42.5112 203.589 -42.5112C218.162 -42.5112 229.975 -30.6977 229.975 -16.1251C229.975 -6.07446 232.324 64.6864 223.425 78.6C219.422 84.86 186.251 83.4026 182.292 78.054C172.08 64.2587 177.203 -5.62398 177.203 -16.1251Z" fill="black"/>
</g>
<g filter="url(#filter2_f_772_522)">
<path d="M59.5734 62.7863C58.2499 58.8985 58.9461 55.1445 61.1284 54.4016C63.3108 53.6587 66.1528 56.2081 67.4764 60.096C68.7999 63.9838 68.1037 67.7378 65.9214 68.4807C63.739 69.2236 60.897 66.6742 59.5734 62.7863Z" fill="#845F44"/>
<path d="M113.836 62.7863C115.159 58.8985 114.463 55.1445 112.281 54.4016C110.099 53.6587 107.256 56.2081 105.933 60.096C104.609 63.9838 105.306 67.7378 107.488 68.4807C109.67 69.2236 112.512 66.6742 113.836 62.7863Z" fill="#845F44"/>
<path d="M77.2022 79.5014L77.1289 95.3675C77.1289 95.3675 83.895 102.885 95.6814 96.1698L95.6528 78.5186C95.6528 78.5186 79.2446 68.72 77.2022 79.5014Z" fill="#845F44"/>
<path d="M76.5947 94.0552C76.5947 94.0552 31.1816 95.07 34.0947 157.556C35.5512 188.798 35.4565 200.575 35.0009 204.524L86.2822 202.649L137.563 204.524C137.108 200.575 137.013 188.798 138.469 157.556C141.383 95.07 95.9384 94.0552 95.9384 94.0552C95.7794 94.1518 95.6285 94.1836 95.4697 94.274C95.5174 94.2087 95.6482 94.1865 95.6884 94.1177C95.6884 94.1177 95.0781 94.4336 94.5947 94.6802C94.3599 94.798 94.1408 94.9187 93.9072 95.024C92.4618 95.6551 90.2277 96.3896 87.5009 96.6177C87.0901 96.6376 86.6781 96.6562 86.2822 96.649C85.8902 96.6562 85.4701 96.637 85.0634 96.6177C82.3627 96.3918 80.1355 95.6518 78.6884 95.024C78.4394 94.9125 78.1888 94.806 77.9384 94.6802C77.462 94.4367 76.8759 94.1177 76.8759 94.1177C76.9232 94.1984 77.0685 94.2292 77.1259 94.3052C76.9471 94.2042 76.774 94.1641 76.5947 94.0552ZM137.563 204.524C138.019 208.473 138.845 204.587 138.844 204.587L137.563 204.524ZM35.0009 204.524L33.7197 204.587C33.7197 204.587 34.5454 208.473 35.0009 204.524Z" fill="url(#paint5_linear_772_522)"/>
<path d="M60.29 48.9999C60.29 34.4272 72.1034 22.6138 86.676 22.6138C101.249 22.6138 113.062 34.4272 113.062 48.9999C113.062 63.5725 101.249 83.0515 86.676 83.0515C72.1034 83.0515 60.29 63.5725 60.29 48.9999Z" fill="black"/>
</g>
<g filter="url(#filter3_f_772_522)">
<path d="M8.8792 91.4748C10.2028 87.587 9.50652 83.833 7.32418 83.0901C5.14185 82.3471 2.29978 84.8966 0.97625 88.7844C-0.347279 92.6723 0.348925 96.4263 2.53126 97.1692C4.7136 97.9121 7.55567 95.3627 8.8792 91.4748Z" fill="#845F44"/>
<path d="M-28.3623 122.744C-28.3623 122.744 -73.7755 123.758 -70.8623 186.244C-69.4058 217.486 -69.5005 229.263 -69.9561 233.212L-18.6748 231.337L32.6064 233.212C32.1509 229.263 32.0561 217.486 33.5127 186.244C36.4258 123.758 -9.01858 122.744 -9.01858 122.744C-9.17763 122.84 -9.32855 122.872 -9.48733 122.962C-9.43962 122.897 -9.30881 122.875 -9.26858 122.806C-9.26858 122.806 -9.87894 123.122 -10.3623 123.369C-10.5971 123.486 -10.8162 123.607 -11.0498 123.712C-12.4952 124.343 -14.7293 125.078 -17.4561 125.306C-17.8669 125.326 -18.279 125.344 -18.6748 125.337C-19.0668 125.344 -19.4869 125.325 -19.8936 125.306C-22.5943 125.08 -24.8216 124.34 -26.2686 123.712C-26.5176 123.601 -26.7683 123.494 -27.0186 123.369C-27.495 123.125 -28.0811 122.806 -28.0811 122.806C-28.0339 122.887 -27.8885 122.918 -27.8311 122.994C-28.01 122.892 -28.1831 122.852 -28.3623 122.744ZM32.6064 233.212C33.062 237.161 33.8877 233.275 33.8877 233.275L32.6064 233.212ZM-69.9561 233.212L-71.2373 233.275C-71.2373 233.275 -70.4116 237.161 -69.9561 233.212Z" fill="url(#paint6_linear_772_522)"/>
<path d="M-44.667 77.6883C-44.667 63.1157 -32.8535 51.3022 -18.2809 51.3022C-3.70824 51.3022 8.10521 63.1157 8.10521 77.6883C8.10521 92.261 -3.70824 111.74 -18.2809 111.74C-32.8535 111.74 -44.667 92.261 -44.667 77.6883Z" fill="black"/>
</g>
<g filter="url(#filter4_f_772_522)">
<path d="M290.621 -2.33858C289.297 -6.22642 289.993 -9.98037 292.176 -10.7234C294.358 -11.4663 297.2 -8.9168 298.524 -5.02896C299.847 -1.14112 299.151 2.61286 296.969 3.35579C294.786 4.09872 291.944 1.54926 290.621 -2.33858Z" fill="#705744"/>
<path d="M344.883 -2.33858C346.207 -6.22642 345.511 -9.98037 343.328 -10.7234C341.146 -11.4663 338.304 -8.9168 336.98 -5.02896C335.657 -1.14112 336.353 2.61286 338.535 3.35579C340.718 4.09872 343.56 1.54926 344.883 -2.33858Z" fill="#705744"/>
<path d="M308.249 14.3769L308.176 30.2431C308.176 30.2431 314.942 37.7612 326.729 31.0454L326.7 13.3941C326.7 13.3941 310.292 3.59552 308.249 14.3769Z" fill="#705744"/>
<path d="M307.642 28.9302C307.642 28.9302 262.229 29.945 265.142 92.4302C266.598 123.673 266.504 135.45 266.048 139.399L317.329 137.524L368.611 139.399C368.155 135.45 368.06 123.673 369.517 92.4302C372.43 29.945 326.986 28.9302 326.986 28.9302C326.827 29.0268 326.676 29.0585 326.517 29.1489C326.565 29.0836 326.695 29.0614 326.736 28.9927C326.736 28.9927 326.125 29.3086 325.642 29.5552C325.407 29.673 325.188 29.7937 324.954 29.8989C323.509 30.53 321.275 31.2646 318.548 31.4927C318.137 31.5125 317.725 31.5311 317.329 31.5239C316.937 31.5312 316.517 31.5119 316.111 31.4927C313.41 31.2668 311.183 30.5268 309.736 29.8989C309.487 29.7874 309.236 29.681 308.986 29.5552C308.509 29.3117 307.923 28.9927 307.923 28.9927C307.97 29.0734 308.116 29.1042 308.173 29.1802C307.994 29.0792 307.821 29.039 307.642 28.9302ZM368.611 139.399C369.066 143.348 369.892 139.461 369.892 139.461L368.611 139.399ZM266.048 139.399L264.767 139.461C264.767 139.461 265.593 143.348 266.048 139.399Z" fill="url(#paint7_linear_772_522)"/>
<path d="M291.337 -16.1251C291.337 -30.6977 303.151 -42.5112 317.723 -42.5112C332.296 -42.5112 344.11 -30.6977 344.11 -16.1251C344.11 -1.55249 332.296 17.9265 317.723 17.9265C303.151 17.9265 291.337 -1.55249 291.337 -16.1251Z" fill="black"/>
</g>
<g filter="url(#filter5_f_772_522)">
<path d="M375.183 13.304C373.86 9.41613 374.556 5.66215 376.738 4.91922C378.921 4.17629 381.763 6.72575 383.086 10.6136C384.41 14.5014 383.713 18.2554 381.531 18.9983C379.349 19.7412 376.507 17.1918 375.183 13.304Z" fill="#AF8E76"/>
<path d="M392.812 30.019L392.739 45.8851C392.739 45.8851 399.505 53.4033 411.291 46.6874L411.263 29.0362C411.263 29.0362 394.854 19.2376 392.812 30.019Z" fill="#AF8E76"/>
<path d="M392.204 44.5728C392.204 44.5728 346.791 45.5876 349.704 108.073C351.161 139.316 351.066 151.093 350.611 155.042L401.892 153.167L453.173 155.042C452.718 151.093 452.623 139.316 454.079 108.073C456.993 45.5876 411.548 44.5728 411.548 44.5728C411.389 44.6694 411.238 44.7012 411.079 44.7916C411.127 44.7263 411.258 44.7041 411.298 44.6353C411.298 44.6353 410.688 44.9513 410.204 45.1978C409.97 45.3157 409.751 45.4364 409.517 45.5416C408.072 46.1727 405.837 46.9073 403.111 47.1353C402.7 47.1552 402.288 47.1738 401.892 47.1666C401.5 47.1738 401.08 47.1546 400.673 47.1353C397.972 46.9094 395.745 46.1694 394.298 45.5416C394.049 45.4301 393.798 45.3236 393.548 45.1978C393.072 44.9543 392.486 44.6353 392.486 44.6353C392.533 44.716 392.678 44.7469 392.736 44.8228C392.557 44.7218 392.384 44.6817 392.204 44.5728ZM453.173 155.042C453.629 158.991 454.454 155.104 454.454 155.104L453.173 155.042ZM350.611 155.042L349.329 155.104C349.329 155.104 350.155 158.991 350.611 155.042Z" fill="url(#paint8_linear_772_522)"/>
<path d="M375.9 -0.48259C375.9 -15.0553 387.713 -26.8687 402.286 -26.8687C416.859 -26.8687 428.672 -15.0553 428.672 -0.48259C428.672 9.56808 431.021 80.3289 422.122 94.2425C418.118 100.503 384.948 99.0452 380.989 93.6964C370.777 79.9012 375.9 10.0186 375.9 -0.48259Z" fill="black"/>
</g>
<g filter="url(#filter6_f_772_522)">
<path d="M264.058 89.5027C262.735 85.6148 263.431 81.8608 265.613 81.1179C267.796 80.375 270.638 82.9244 271.961 86.8123C273.285 90.7001 272.588 94.4541 270.406 95.197C268.224 95.9399 265.382 93.3905 264.058 89.5027Z" fill="#A0714F"/>
<path d="M318.321 89.5027C319.644 85.6148 318.948 81.8608 316.766 81.1179C314.583 80.375 311.741 82.9244 310.418 86.8123C309.094 90.7001 309.791 94.4541 311.973 95.197C314.155 95.9399 316.997 93.3905 318.321 89.5027Z" fill="#A0714F"/>
<path d="M281.687 106.217L281.614 122.083C281.614 122.083 288.38 129.602 300.166 122.886L300.138 105.234C300.138 105.234 283.729 95.4361 281.687 106.217Z" fill="#A0714F"/>
<path d="M281.079 120.771C281.079 120.771 235.666 121.786 238.579 184.271C240.036 215.513 239.941 227.29 239.486 231.24L290.767 229.365L342.048 231.24C341.593 227.29 341.498 215.513 342.954 184.271C345.868 121.786 300.423 120.771 300.423 120.771C300.264 120.867 300.113 120.899 299.954 120.99C300.002 120.924 300.133 120.902 300.173 120.833C300.173 120.833 299.563 121.149 299.079 121.396C298.845 121.514 298.626 121.634 298.392 121.74C296.947 122.371 294.712 123.105 291.986 123.333C291.575 123.353 291.163 123.372 290.767 123.365C290.375 123.372 289.955 123.353 289.548 123.333C286.847 123.107 284.62 122.367 283.173 121.74C282.924 121.628 282.673 121.522 282.423 121.396C281.947 121.152 281.361 120.833 281.361 120.833C281.408 120.914 281.553 120.945 281.611 121.021C281.432 120.92 281.259 120.88 281.079 120.771ZM342.048 231.24C342.504 235.189 343.329 231.302 343.329 231.302L342.048 231.24ZM239.486 231.24L238.204 231.302C238.204 231.302 239.03 235.189 239.486 231.24Z" fill="url(#paint9_linear_772_522)"/>
<path d="M264.253 77.9134C264.253 63.3407 276.067 51.5273 290.64 51.5273C305.212 51.5273 317.026 63.3407 317.026 77.9134C317.026 92.486 305.212 111.965 290.64 111.965C276.067 111.965 264.253 92.486 264.253 77.9134Z" fill="black"/>
</g>
<path d="M163.54 127.898L160.704 150.483C160.704 150.483 164.272 151.962 167.045 151.457L166.343 153.627C166.343 153.627 168.94 155.492 175.199 152.913C175.199 152.913 178.564 156.862 187.755 151.775C187.755 151.775 184.041 108.413 164.214 127.464C163.345 128.299 164.305 125.719 164.305 125.719L163.54 127.898Z" fill="black"/>
<path d="M183.562 138.639L183.489 154.505C183.489 154.505 190.255 162.023 202.041 155.307L202.013 137.656C202.013 137.656 185.604 127.857 183.562 138.639Z" fill="#AF8E76"/>
<path d="M182.954 153.193C182.954 153.193 137.541 154.208 140.454 216.693C141.911 247.936 141.816 259.713 141.361 263.662L192.642 261.787L243.923 263.662C243.468 259.713 243.373 247.936 244.829 216.693C247.743 154.208 202.298 153.193 202.298 153.193C202.139 153.29 201.988 153.322 201.829 153.412C201.877 153.347 202.008 153.324 202.048 153.256C202.048 153.256 201.438 153.572 200.954 153.818C200.72 153.936 200.501 154.057 200.267 154.162C198.822 154.793 196.587 155.528 193.861 155.756C193.45 155.776 193.038 155.794 192.642 155.787C192.25 155.794 191.83 155.775 191.423 155.756C188.722 155.53 186.495 154.79 185.048 154.162C184.799 154.05 184.548 153.944 184.298 153.818C183.822 153.575 183.236 153.256 183.236 153.256C183.283 153.336 183.428 153.367 183.486 153.443C183.307 153.342 183.134 153.302 182.954 153.193ZM243.923 263.662C244.379 267.611 245.204 263.724 245.204 263.724L243.923 263.662ZM141.361 263.662L140.079 263.724C140.079 263.724 140.905 267.611 141.361 263.662Z" fill="url(#paint10_linear_772_522)"/>
<path d="M161.688 109.264C161.688 94.6908 173.501 82.8774 188.074 82.8774C202.646 82.8774 214.46 94.6908 214.46 109.264C214.46 123.837 205.095 142.471 182.936 142.424C163.314 142.382 161.688 123.837 161.688 109.264Z" fill="#AF8E76"/>
<path d="M173.034 120.649C172.878 120.666 172.773 120.77 172.786 120.905C172.779 120.936 172.746 120.964 172.73 121.007C172.684 121.133 172.638 121.276 172.541 121.41C172.264 121.797 171.799 122.103 171.165 122.279C170.423 122.485 169.52 122.295 169.127 121.913C169.025 121.813 168.845 121.789 168.727 121.882C168.608 121.976 168.611 122.158 168.713 122.258C169.253 122.782 170.398 123.012 171.346 122.749C172.12 122.534 172.66 122.137 173.01 121.648C173.134 121.475 173.23 121.303 173.291 121.138C173.313 121.077 173.326 121.023 173.337 120.975C173.344 120.945 173.321 120.9 173.323 120.884C173.373 120.879 173.392 120.895 173.034 120.649Z" fill="#040302"/>
<path d="M165.553 121.195C165.043 116.521 167.673 112.4 171.428 111.99C175.182 111.581 178.638 115.038 179.148 119.713C179.658 124.387 177.028 128.509 173.274 128.918C169.519 129.328 166.063 125.87 165.553 121.195Z" fill="white" fill-opacity="0.254798"/>
<path d="M171.398 111.712C167.518 112.135 164.797 116.387 165.323 121.211C165.849 126.036 169.423 129.601 173.303 129.178C177.183 128.754 179.904 124.503 179.378 119.678C178.852 114.854 175.279 111.289 171.398 111.712ZM171.458 112.26C175.086 111.864 178.433 115.203 178.927 119.728C179.42 124.252 176.872 128.234 173.243 128.63C169.615 129.025 166.268 125.687 165.775 121.162C165.281 116.637 167.83 112.656 171.458 112.26Z" fill="#040302"/>
<path d="M163.974 118.236C163.444 118.239 162.937 118.469 162.572 118.923C162.485 119.031 162.502 119.178 162.609 119.265C162.717 119.351 162.896 119.332 162.982 119.224C163.516 118.56 164.462 118.599 165.215 119.232C165.32 119.321 165.468 119.3 165.557 119.195C165.645 119.089 165.656 118.938 165.55 118.85C165.076 118.451 164.505 118.232 163.974 118.236Z" fill="#040302"/>
<path d="M185.453 116.585C184.973 117.109 180.258 118.534 179.234 118.646C179.097 118.661 178.998 118.784 179.012 118.922C179.027 119.059 179.151 119.158 179.288 119.143C180.429 119.019 185.214 117.568 185.805 116.923C185.898 116.822 185.897 116.641 185.795 116.547C185.693 116.454 185.547 116.483 185.453 116.585Z" fill="url(#paint11_linear_772_522)"/>
<path d="M154.596 120.769C154.119 116.398 155.548 112.657 157.787 112.413C160.027 112.169 162.228 115.514 162.705 119.884C163.181 124.254 161.753 127.995 159.513 128.24C157.274 128.484 155.072 125.139 154.596 120.769Z" fill="white" fill-opacity="0.254798"/>
<path d="M157.76 112.154C155.446 112.407 153.967 116.266 154.459 120.776C154.951 125.286 157.227 128.736 159.541 128.483C161.855 128.231 163.334 124.372 162.842 119.862C162.35 115.351 160.075 111.902 157.76 112.154ZM157.816 112.667C159.98 112.43 162.112 115.661 162.573 119.891C163.034 124.121 161.649 127.735 159.485 127.971C157.321 128.207 155.19 124.977 154.728 120.747C154.267 116.516 155.652 112.903 157.816 112.667Z" fill="#040302"/>
<path d="M189.286 119.875C189.286 116.882 191.464 114.455 194.15 114.455C196.837 114.455 199.014 116.882 199.014 119.875C199.014 122.868 196.837 125.295 194.15 125.295C191.464 125.295 189.286 122.868 189.286 119.875Z" fill="url(#paint12_linear_772_522)"/>
<path d="M161.478 109.63C161.478 109.63 163.208 99.9943 165.569 101.455C169.612 103.956 181.727 112.641 187.406 114.264C187.406 114.264 195.96 105.364 200.763 113.412C205.566 121.46 199.738 132.195 189.813 128.648C189.813 128.648 184.133 153.716 181.576 158.005C181.576 158.005 195.026 162.724 200.89 158.168C200.89 158.168 217.332 159.856 220.956 149.849C220.956 149.849 232.481 148.795 232.548 145.65C232.548 145.65 228.23 92.5776 205.811 84.7028C174.618 73.7463 167.724 85.8061 160.54 98.1645C157.539 103.327 161.478 109.63 161.478 109.63Z" fill="black"/>
<path d="M169.513 135.012C168.998 132.919 170.349 131.578 172.674 131.544C173.091 131.538 175.251 131.396 175.406 131.939C175.466 132.148 170.721 135.153 170.292 135.13C169.954 135.112 169.56 135.204 169.513 135.012Z" fill="#2E251F"/>
<path d="M168.263 108.446C168.494 109.962 171.029 110.405 172.879 110.474C173.047 110.481 174.432 110.38 174.425 110.224C174.414 109.974 173.244 109.607 173.019 109.523C171.892 109.103 168.123 107.521 168.263 108.446Z" fill="#2E251F"/>
<g filter="url(#filter7_f_772_522)">
<path d="M231.049 159.316C229.725 155.428 230.421 151.674 232.604 150.931C234.786 150.188 237.628 152.737 238.952 156.625C240.275 160.513 239.579 164.267 237.397 165.01C235.214 165.753 232.372 163.204 231.049 159.316Z" fill="#624E40"/>
<path d="M285.312 159.316C286.636 155.428 285.94 151.674 283.757 150.931C281.575 150.188 278.733 152.737 277.409 156.625C276.086 160.513 276.782 164.267 278.964 165.01C281.147 165.753 283.989 163.204 285.312 159.316Z" fill="#624E40"/>
<path d="M248.678 176.032L248.604 191.898C248.604 191.898 255.371 199.416 267.158 192.7L267.128 175.049C267.128 175.049 250.72 165.25 248.678 176.032Z" fill="#624E40"/>
<path d="M248.07 190.584C248.07 190.584 202.657 191.599 205.57 254.084C207.027 285.327 206.932 297.104 206.476 301.053L257.757 299.178L309.039 301.053C308.583 297.104 308.488 285.327 309.945 254.084C312.858 191.599 267.414 190.584 267.414 190.584C267.255 190.681 267.104 190.713 266.945 190.803C266.993 190.738 267.124 190.716 267.164 190.647C267.164 190.647 266.553 190.963 266.07 191.209C265.835 191.327 265.616 191.448 265.382 191.553C263.937 192.184 261.703 192.919 258.976 193.147C258.565 193.167 258.153 193.185 257.757 193.178C257.366 193.185 256.945 193.166 256.539 193.147C253.838 192.921 251.611 192.181 250.164 191.553C249.915 191.442 249.664 191.335 249.414 191.209C248.937 190.966 248.351 190.647 248.351 190.647C248.398 190.728 248.544 190.758 248.601 190.834C248.422 190.733 248.249 190.693 248.07 190.584ZM309.039 301.053C309.494 305.002 310.32 301.116 310.32 301.116L309.039 301.053ZM206.476 301.053L205.195 301.116C205.195 301.116 206.021 305.002 206.476 301.053Z" fill="url(#paint13_linear_772_522)"/>
<path d="M232.004 145.53C232.004 130.957 243.817 119.144 258.39 119.144C272.962 119.144 284.776 130.957 284.776 145.53C284.776 160.103 272.962 179.582 258.39 179.582C243.817 179.582 232.004 160.103 232.004 145.53Z" fill="black"/>
</g>
<path d="M113.765 198.058L113.691 213.924C113.691 213.924 120.457 221.442 132.244 214.727L132.215 197.075C132.215 197.075 115.807 187.277 113.765 198.058Z" fill="#AF8E76"/>
<path d="M113.157 212.612C113.157 212.612 67.7441 213.626 70.6572 276.112C72.1137 307.354 72.019 319.131 71.5634 323.08L122.844 321.205L174.126 323.08C173.67 319.131 173.575 307.354 175.032 276.112C177.945 213.626 132.501 212.612 132.501 212.612C132.342 212.708 132.191 212.74 132.032 212.83C132.08 212.765 132.211 212.743 132.251 212.674C132.251 212.674 131.64 212.99 131.157 213.237C130.922 213.355 130.703 213.475 130.469 213.58C129.024 214.212 126.79 214.946 124.063 215.174C123.652 215.194 123.24 215.213 122.844 215.205C122.453 215.213 122.032 215.193 121.626 215.174C118.925 214.948 116.698 214.208 115.251 213.58C115.002 213.469 114.751 213.362 114.501 213.237C114.024 212.993 113.438 212.674 113.438 212.674C113.485 212.755 113.631 212.786 113.688 212.862C113.509 212.761 113.336 212.721 113.157 212.612ZM174.126 323.08C174.581 327.03 175.407 323.143 175.407 323.143L174.126 323.08ZM71.5634 323.08L70.2822 323.143C70.2822 323.143 71.1079 327.03 71.5634 323.08Z" fill="url(#paint14_linear_772_522)"/>
<path d="M96.8526 167.556C96.8526 152.984 108.666 141.17 123.239 141.17C137.811 141.17 149.625 152.984 149.625 167.556C149.625 177.607 151.973 248.368 143.075 262.281C139.071 268.541 105.901 267.084 101.942 261.735C91.7301 247.94 96.8526 178.057 96.8526 167.556Z" fill="black"/>
<g filter="url(#filter8_f_772_522)">
<path d="M7.17889 159.316C5.85536 155.428 6.55157 151.674 8.73391 150.931C10.9163 150.188 13.7583 152.737 15.0819 156.625C16.4054 160.513 15.7092 164.267 13.5268 165.01C11.3445 165.753 8.50242 163.204 7.17889 159.316Z" fill="#857060"/>
<path d="M61.4416 159.316C62.7652 155.428 62.069 151.674 59.8866 150.931C57.7043 150.188 54.8622 152.737 53.5387 156.625C52.2152 160.513 52.9114 164.267 55.0937 165.01C57.276 165.753 60.1181 163.204 61.4416 159.316Z" fill="#857060"/>
<path d="M24.8077 176.032L24.7344 191.898C24.7344 191.898 31.5005 199.416 43.2868 192.7L43.2583 175.049C43.2583 175.049 26.8501 165.25 24.8077 176.032Z" fill="#857060"/>
<path d="M24.2002 190.584C24.2002 190.584 -21.213 191.599 -18.2998 254.084C-16.8433 285.327 -16.938 297.104 -17.3936 301.053L33.8877 299.178L85.1689 301.053C84.7134 297.104 84.6186 285.327 86.0752 254.084C88.9883 191.599 43.5439 190.584 43.5439 190.584C43.3849 190.681 43.2339 190.713 43.0752 190.803C43.1229 190.738 43.2537 190.716 43.2939 190.647C43.2939 190.647 42.6836 190.963 42.2002 191.209C41.9654 191.327 41.7463 191.448 41.5127 191.553C40.0673 192.184 37.8332 192.919 35.1064 193.147C34.6956 193.167 34.2835 193.185 33.8877 193.178C33.4957 193.185 33.0756 193.166 32.6689 193.147C29.9682 192.921 27.7409 192.181 26.2939 191.553C26.0449 191.442 25.7942 191.335 25.5439 191.209C25.0675 190.966 24.4814 190.647 24.4814 190.647C24.5286 190.728 24.674 190.758 24.7314 190.834C24.5525 190.733 24.3794 190.693 24.2002 190.584ZM85.1689 301.053C85.6245 305.002 86.4502 301.116 86.4502 301.116L85.1689 301.053ZM-17.3936 301.053L-18.6748 301.116C-18.6748 301.116 -17.8491 305.002 -17.3936 301.053Z" fill="url(#paint15_linear_772_522)"/>
<path d="M7.89551 145.53C7.89551 130.957 19.709 119.144 34.2816 119.144C48.8542 119.144 60.6677 130.957 60.6677 145.53C60.6677 160.103 48.8542 179.582 34.2816 179.582C19.709 179.582 7.89551 160.103 7.89551 145.53Z" fill="black"/>
</g>
<g filter="url(#filter9_f_772_522)">
<path d="M25.8537 236.986C24.5302 233.098 25.2264 229.344 27.4087 228.601C29.5911 227.858 32.4332 230.408 33.7567 234.296C35.0802 238.184 34.384 241.938 32.2017 242.681C30.0193 243.423 27.1773 240.874 25.8537 236.986Z" fill="#523825"/>
<path d="M80.1165 236.986C81.44 233.098 80.7438 229.344 78.5615 228.601C76.3791 227.858 73.537 230.408 72.2135 234.296C70.89 238.184 71.5862 241.938 73.7685 242.681C75.9509 243.423 78.7929 240.874 80.1165 236.986Z" fill="#523825"/>
<path d="M43.4824 253.701L43.4092 269.567C43.4092 269.567 50.1752 277.086 61.9616 270.37L61.933 252.718C61.933 252.718 45.5248 242.92 43.4824 253.701Z" fill="#523825"/>
<path d="M42.875 268.254C42.875 268.254 -2.53813 269.269 0.375 331.754C1.83155 362.996 1.73682 374.774 1.28125 378.723L52.5625 376.848L103.844 378.723C103.388 374.774 103.293 362.996 104.75 331.754C107.663 269.269 62.2188 268.254 62.2188 268.254C62.0597 268.35 61.9088 268.382 61.75 268.473C61.7977 268.407 61.9285 268.385 61.9688 268.316C61.9688 268.316 61.3584 268.632 60.875 268.879C60.6402 268.997 60.4212 269.117 60.1875 269.223C58.7421 269.854 56.508 270.588 53.7812 270.816C53.3704 270.836 52.9584 270.855 52.5625 270.848C52.1705 270.855 51.7504 270.836 51.3438 270.816C48.643 270.59 46.4158 269.85 44.9688 269.223C44.7197 269.111 44.4691 269.005 44.2188 268.879C43.7423 268.635 43.1562 268.316 43.1562 268.316C43.2035 268.397 43.3488 268.428 43.4062 268.504C43.2274 268.403 43.0543 268.363 42.875 268.254ZM103.844 378.723C104.299 382.672 105.125 378.785 105.125 378.785L103.844 378.723ZM1.28125 378.723L0 378.785C-2.54312e-06 378.785 0.825683 382.672 1.28125 378.723Z" fill="url(#paint16_linear_772_522)"/>
<path d="M26.5703 223.199C26.5703 208.627 38.3837 196.812 52.9563 196.812C67.529 196.812 79.3424 208.627 79.3424 223.199C79.3424 237.771 67.529 257.25 52.9563 257.25C38.3837 257.25 26.5703 237.771 26.5703 223.199Z" fill="black"/>
</g>
<g filter="url(#filter10_f_772_522)">
<path d="M130.979 275.157C129.655 271.269 130.351 267.515 132.534 266.772C134.716 266.029 137.558 268.578 138.882 272.466C140.205 276.354 139.509 280.108 137.327 280.851C135.144 281.594 132.302 279.044 130.979 275.157Z" fill="#745640"/>
<path d="M185.241 275.157C186.565 271.269 185.869 267.515 183.686 266.772C181.504 266.029 178.662 268.578 177.338 272.466C176.015 276.354 176.711 280.108 178.893 280.851C181.076 281.594 183.918 279.044 185.241 275.157Z" fill="#745640"/>
<path d="M148.608 291.872L148.534 307.738C148.534 307.738 155.3 315.256 167.087 308.54L167.058 290.889C167.058 290.889 150.65 281.09 148.608 291.872Z" fill="#745640"/>
<path d="M148 306.425C148 306.425 102.587 307.44 105.5 369.925C106.957 401.168 106.862 412.945 106.406 416.894L157.688 415.019L208.969 416.894C208.513 412.945 208.418 401.168 209.875 369.925C212.788 307.44 167.344 306.425 167.344 306.425C167.185 306.522 167.034 306.554 166.875 306.644C166.923 306.579 167.054 306.556 167.094 306.488C167.094 306.488 166.483 306.804 166 307.05C165.765 307.168 165.546 307.289 165.312 307.394C163.867 308.025 161.633 308.76 158.906 308.988C158.495 309.008 158.083 309.026 157.688 309.019C157.296 309.026 156.875 309.007 156.469 308.988C153.768 308.762 151.541 308.022 150.094 307.394C149.845 307.282 149.594 307.176 149.344 307.05C148.867 306.807 148.281 306.488 148.281 306.488C148.328 306.568 148.474 306.599 148.531 306.675C148.352 306.574 148.179 306.534 148 306.425ZM208.969 416.894C209.424 420.843 210.25 416.956 210.25 416.956L208.969 416.894ZM106.406 416.894L105.125 416.956C105.125 416.956 105.951 420.843 106.406 416.894Z" fill="url(#paint17_linear_772_522)"/>
<path d="M131.695 261.37C131.695 246.797 143.509 234.984 158.082 234.984C172.654 234.984 184.468 246.797 184.468 261.37C184.468 275.942 172.654 295.421 158.082 295.421C143.509 295.421 131.695 275.942 131.695 261.37Z" fill="black"/>
</g>
<g filter="url(#filter11_f_772_522)">
<path d="M343.879 129.605C342.556 125.717 343.252 121.963 345.434 121.22C347.617 120.477 350.459 123.027 351.782 126.915C353.106 130.802 352.41 134.556 350.227 135.299C348.045 136.042 345.203 133.493 343.879 129.605Z" fill="#72533D"/>
<path d="M398.143 129.605C399.467 125.717 398.77 121.963 396.588 121.22C394.406 120.477 391.564 123.027 390.24 126.915C388.917 130.802 389.613 134.556 391.795 135.299C393.977 136.042 396.819 133.493 398.143 129.605Z" fill="#72533D"/>
<path d="M361.509 146.321L361.436 162.187C361.436 162.187 368.202 169.705 379.988 162.989L379.96 145.338C379.96 145.338 363.552 135.54 361.509 146.321Z" fill="#72533D"/>
<path d="M360.901 160.875C360.901 160.875 315.488 161.889 318.401 224.375C319.857 255.617 319.762 267.394 319.307 271.343L370.588 269.468L421.869 271.343C421.414 267.394 421.319 255.617 422.776 224.375C425.689 161.889 380.244 160.875 380.244 160.875C380.085 160.971 379.934 161.003 379.776 161.093C379.823 161.028 379.954 161.006 379.994 160.937C379.994 160.937 379.384 161.253 378.901 161.5C378.666 161.617 378.447 161.738 378.213 161.843C376.768 162.474 374.534 163.209 371.807 163.437C371.396 163.457 370.984 163.476 370.588 163.468C370.196 163.476 369.776 163.456 369.369 163.437C366.669 163.211 364.441 162.471 362.994 161.843C362.745 161.732 362.495 161.625 362.244 161.5C361.768 161.256 361.182 160.937 361.182 160.937C361.229 161.018 361.374 161.049 361.432 161.125C361.253 161.024 361.08 160.983 360.901 160.875ZM421.869 271.343C422.325 275.292 423.151 271.406 423.151 271.406L421.869 271.343ZM319.307 271.343L318.026 271.406C318.026 271.406 318.851 275.292 319.307 271.343Z" fill="url(#paint18_linear_772_522)"/>
<path d="M344.596 115.819C344.596 101.247 356.41 89.4326 370.982 89.4326C385.555 89.4326 397.368 101.247 397.368 115.819C397.368 130.392 385.555 149.871 370.982 149.871C356.41 149.871 344.596 130.392 344.596 115.819Z" fill="black"/>
</g>
<g filter="url(#filter12_f_772_522)">
<path d="M269.301 236.986C267.977 233.098 268.674 229.344 270.856 228.601C273.038 227.858 275.88 230.408 277.204 234.296C278.527 238.184 277.831 241.938 275.649 242.681C273.467 243.423 270.624 240.874 269.301 236.986Z" fill="#B48563"/>
<path d="M323.564 236.986C324.887 233.098 324.191 229.344 322.009 228.601C319.826 227.858 316.984 230.408 315.661 234.296C314.337 238.184 315.033 241.938 317.216 242.681C319.398 243.423 322.24 240.874 323.564 236.986Z" fill="#B48563"/>
<path d="M286.93 253.701L286.856 269.567C286.856 269.567 293.622 277.086 305.409 270.37L305.38 252.718C305.38 252.718 288.972 242.92 286.93 253.701Z" fill="#B48563"/>
<path d="M286.322 268.254C286.322 268.254 240.909 269.269 243.822 331.754C245.279 362.996 245.184 374.774 244.728 378.723L296.01 376.848L347.291 378.723C346.835 374.774 346.741 362.996 348.197 331.754C351.11 269.269 305.666 268.254 305.666 268.254C305.507 268.35 305.356 268.382 305.197 268.473C305.245 268.407 305.376 268.385 305.416 268.316C305.416 268.316 304.806 268.632 304.322 268.879C304.087 268.997 303.868 269.117 303.635 269.223C302.189 269.854 299.955 270.588 297.228 270.816C296.818 270.836 296.406 270.855 296.01 270.848C295.618 270.855 295.198 270.836 294.791 270.816C292.09 270.59 289.863 269.85 288.416 269.223C288.167 269.111 287.916 269.005 287.666 268.879C287.189 268.635 286.603 268.316 286.603 268.316C286.651 268.397 286.796 268.428 286.853 268.504C286.675 268.403 286.501 268.363 286.322 268.254ZM347.291 378.723C347.747 382.672 348.572 378.785 348.572 378.785L347.291 378.723ZM244.728 378.723L243.447 378.785C243.447 378.785 244.273 382.672 244.728 378.723Z" fill="url(#paint19_linear_772_522)"/>
<path d="M270.018 223.199C270.018 208.627 281.831 196.812 296.404 196.812C310.976 196.812 322.79 208.627 322.79 223.199C322.79 237.771 310.976 257.25 296.404 257.25C281.831 257.25 270.018 237.771 270.018 223.199Z" fill="black"/>
</g>
<g filter="url(#filter13_f_772_522)">
<path d="M238.89 310.223L238.816 326.089C238.816 326.089 245.582 333.608 257.369 326.892L257.34 309.24C257.34 309.24 240.932 299.442 238.89 310.223Z" fill="#AF8E76"/>
<path d="M238.282 324.777C238.282 324.777 192.869 325.792 195.782 388.277C197.239 419.519 197.144 431.296 196.688 435.246L247.969 433.371L299.251 435.246C298.795 431.296 298.7 419.519 300.157 388.277C303.07 325.792 257.626 324.777 257.626 324.777C257.467 324.873 257.316 324.905 257.157 324.996C257.205 324.93 257.336 324.908 257.376 324.839C257.376 324.839 256.765 325.155 256.282 325.402C256.047 325.52 255.828 325.64 255.594 325.746C254.149 326.377 251.915 327.111 249.188 327.339C248.777 327.359 248.365 327.378 247.969 327.371C247.578 327.378 247.157 327.358 246.751 327.339C244.05 327.113 241.823 326.373 240.376 325.746C240.127 325.634 239.876 325.528 239.626 325.402C239.149 325.158 238.563 324.839 238.563 324.839C238.61 324.92 238.756 324.951 238.813 325.027C238.634 324.926 238.461 324.886 238.282 324.777ZM299.251 435.246C299.706 439.195 300.532 435.308 300.532 435.308L299.251 435.246ZM196.688 435.246L195.407 435.308C195.407 435.308 196.233 439.195 196.688 435.246Z" fill="url(#paint20_linear_772_522)"/>
<path d="M221.977 279.721C221.977 265.149 233.791 253.335 248.364 253.335C262.936 253.335 274.75 265.149 274.75 279.721C274.75 289.772 277.098 360.533 268.2 374.446C264.196 380.706 231.026 379.249 227.067 373.9C216.855 360.105 221.977 290.223 221.977 279.721Z" fill="black"/>
</g>
<g filter="url(#filter14_f_772_522)">
<path d="M355.183 262.756C353.86 258.869 354.556 255.115 356.738 254.372C358.921 253.629 361.763 256.178 363.086 260.066C364.41 263.954 363.713 267.708 361.531 268.451C359.349 269.194 356.507 266.644 355.183 262.756Z" fill="#6E4425"/>
<path d="M409.446 262.756C410.769 258.869 410.073 255.115 407.891 254.372C405.708 253.629 402.866 256.178 401.543 260.066C400.219 263.954 400.916 267.708 403.098 268.451C405.28 269.194 408.122 266.644 409.446 262.756Z" fill="#AF8E76"/>
<path d="M372.812 279.471L372.739 295.338C372.739 295.338 379.505 302.856 391.291 296.14L391.263 278.489C391.263 278.489 374.854 268.69 372.812 279.471Z" fill="#AF8E76"/>
<path d="M372.204 294.025C372.204 294.025 326.791 295.04 329.704 357.525C331.161 388.768 331.066 400.545 330.611 404.494L381.892 402.619L433.173 404.494C432.718 400.545 432.623 388.768 434.079 357.525C436.993 295.04 391.548 294.025 391.548 294.025C391.389 294.122 391.238 294.153 391.079 294.244C391.127 294.178 391.258 294.156 391.298 294.088C391.298 294.088 390.688 294.403 390.204 294.65C389.97 294.768 389.751 294.889 389.517 294.994C388.072 295.625 385.837 296.359 383.111 296.588C382.7 296.607 382.288 296.626 381.892 296.619C381.5 296.626 381.08 296.607 380.673 296.588C377.972 296.362 375.745 295.622 374.298 294.994C374.049 294.882 373.798 294.776 373.548 294.65C373.072 294.407 372.486 294.088 372.486 294.088C372.533 294.168 372.678 294.199 372.736 294.275C372.557 294.174 372.384 294.134 372.204 294.025ZM433.173 404.494C433.629 408.443 434.454 404.556 434.454 404.556L433.173 404.494ZM330.611 404.494L329.329 404.556C329.329 404.556 330.155 408.443 330.611 404.494Z" fill="url(#paint21_linear_772_522)"/>
<path d="M355.9 248.97C355.9 234.397 367.713 222.584 382.286 222.584C396.859 222.584 408.672 234.397 408.672 248.97C408.672 259.02 411.021 329.781 402.122 343.695C398.118 349.955 364.948 348.497 360.989 343.149C350.777 329.353 355.9 259.471 355.9 248.97Z" fill="black"/>
</g>
</g>
</g>
<defs>
<filter id="filter0_f_772_522" x="-21.2702" y="-82.8166" width="110.316" height="188.872" filterUnits="userSpaceOnUse" color-interpolation-filters="sRGB">
<feFlood flood-opacity="0" result="BackgroundImageFix"/>
<feBlend mode="normal" in="SourceGraphic" in2="BackgroundImageFix" result="shape"/>
<feGaussianBlur stdDeviation="1.29769" result="effect1_foregroundBlur_772_522"/>
</filter>
<filter id="filter1_f_772_522" x="148.037" y="-45.1066" width="110.316" height="188.872" filterUnits="userSpaceOnUse" color-interpolation-filters="sRGB">
<feFlood flood-opacity="0" result="BackgroundImageFix"/>
<feBlend mode="normal" in="SourceGraphic" in2="BackgroundImageFix" result="shape"/>
<feGaussianBlur stdDeviation="1.29769" result="effect1_foregroundBlur_772_522"/>
</filter>
<filter id="filter2_f_772_522" x="31.9261" y="20.8201" width="108.712" height="187.269" filterUnits="userSpaceOnUse" color-interpolation-filters="sRGB">
<feFlood flood-opacity="0" result="BackgroundImageFix"/>
<feBlend mode="normal" in="SourceGraphic" in2="BackgroundImageFix" result="shape"/>
<feGaussianBlur stdDeviation="0.896828" result="effect1_foregroundBlur_772_522"/>
</filter>
<filter id="filter3_f_772_522" x="-73.031" y="49.5086" width="108.712" height="187.269" filterUnits="userSpaceOnUse" color-interpolation-filters="sRGB">
<feFlood flood-opacity="0" result="BackgroundImageFix"/>
<feBlend mode="normal" in="SourceGraphic" in2="BackgroundImageFix" result="shape"/>
<feGaussianBlur stdDeviation="0.896828" result="effect1_foregroundBlur_772_522"/>
</filter>
<filter id="filter4_f_772_522" x="262.172" y="-45.1066" width="110.316" height="188.872" filterUnits="userSpaceOnUse" color-interpolation-filters="sRGB">
<feFlood flood-opacity="0" result="BackgroundImageFix"/>
<feBlend mode="normal" in="SourceGraphic" in2="BackgroundImageFix" result="shape"/>
<feGaussianBlur stdDeviation="1.29769" result="effect1_foregroundBlur_772_522"/>
</filter>
<filter id="filter5_f_772_522" x="347.015" y="-29.1831" width="109.754" height="188.311" filterUnits="userSpaceOnUse" color-interpolation-filters="sRGB">
<feFlood flood-opacity="0" result="BackgroundImageFix"/>
<feBlend mode="normal" in="SourceGraphic" in2="BackgroundImageFix" result="shape"/>
<feGaussianBlur stdDeviation="1.15724" result="effect1_foregroundBlur_772_522"/>
</filter>
<filter id="filter6_f_772_522" x="236.41" y="49.7337" width="108.712" height="185.072" filterUnits="userSpaceOnUse" color-interpolation-filters="sRGB">
<feFlood flood-opacity="0" result="BackgroundImageFix"/>
<feBlend mode="normal" in="SourceGraphic" in2="BackgroundImageFix" result="shape"/>
<feGaussianBlur stdDeviation="0.896828" result="effect1_foregroundBlur_772_522"/>
</filter>
<filter id="filter7_f_772_522" x="204.01" y="117.959" width="107.495" height="186.051" filterUnits="userSpaceOnUse" color-interpolation-filters="sRGB">
<feFlood flood-opacity="0" result="BackgroundImageFix"/>
<feBlend mode="normal" in="SourceGraphic" in2="BackgroundImageFix" result="shape"/>
<feGaussianBlur stdDeviation="0.592521" result="effect1_foregroundBlur_772_522"/>
</filter>
<filter id="filter8_f_772_522" x="-20.4685" y="117.35" width="108.712" height="187.269" filterUnits="userSpaceOnUse" color-interpolation-filters="sRGB">
<feFlood flood-opacity="0" result="BackgroundImageFix"/>
<feBlend mode="normal" in="SourceGraphic" in2="BackgroundImageFix" result="shape"/>
<feGaussianBlur stdDeviation="0.896828" result="effect1_foregroundBlur_772_522"/>
</filter>
<filter id="filter9_f_772_522" x="-4.3276" y="192.485" width="113.78" height="192.337" filterUnits="userSpaceOnUse" color-interpolation-filters="sRGB">
<feFlood flood-opacity="0" result="BackgroundImageFix"/>
<feBlend mode="normal" in="SourceGraphic" in2="BackgroundImageFix" result="shape"/>
<feGaussianBlur stdDeviation="2.1638" result="effect1_foregroundBlur_772_522"/>
</filter>
<filter id="filter10_f_772_522" x="100.797" y="230.657" width="113.78" height="192.336" filterUnits="userSpaceOnUse" color-interpolation-filters="sRGB">
<feFlood flood-opacity="0" result="BackgroundImageFix"/>
<feBlend mode="normal" in="SourceGraphic" in2="BackgroundImageFix" result="shape"/>
<feGaussianBlur stdDeviation="2.1638" result="effect1_foregroundBlur_772_522"/>
</filter>
<filter id="filter11_f_772_522" x="316.233" y="87.639" width="108.712" height="187.269" filterUnits="userSpaceOnUse" color-interpolation-filters="sRGB">
<feFlood flood-opacity="0" result="BackgroundImageFix"/>
<feBlend mode="normal" in="SourceGraphic" in2="BackgroundImageFix" result="shape"/>
<feGaussianBlur stdDeviation="0.896828" result="effect1_foregroundBlur_772_522"/>
</filter>
<filter id="filter12_f_772_522" x="239.12" y="192.485" width="113.78" height="192.337" filterUnits="userSpaceOnUse" color-interpolation-filters="sRGB">
<feFlood flood-opacity="0" result="BackgroundImageFix"/>
<feBlend mode="normal" in="SourceGraphic" in2="BackgroundImageFix" result="shape"/>
<feGaussianBlur stdDeviation="2.1638" result="effect1_foregroundBlur_772_522"/>
</filter>
<filter id="filter13_f_772_522" x="190.269" y="248.197" width="115.401" height="193.958" filterUnits="userSpaceOnUse" color-interpolation-filters="sRGB">
<feFlood flood-opacity="0" result="BackgroundImageFix"/>
<feBlend mode="normal" in="SourceGraphic" in2="BackgroundImageFix" result="shape"/>
<feGaussianBlur stdDeviation="2.56905" result="effect1_foregroundBlur_772_522"/>
</filter>
<filter id="filter14_f_772_522" x="325.002" y="218.257" width="113.78" height="192.336" filterUnits="userSpaceOnUse" color-interpolation-filters="sRGB">
<feFlood flood-opacity="0" result="BackgroundImageFix"/>
<feBlend mode="normal" in="SourceGraphic" in2="BackgroundImageFix" result="shape"/>
<feGaussianBlur stdDeviation="2.1638" result="effect1_foregroundBlur_772_522"/>
</filter>
<linearGradient id="paint0_linear_772_522" x1="128.115" y1="71.2646" x2="129.293" y2="-19.4856" gradientUnits="userSpaceOnUse">
<stop stop-color="#181818"/>
<stop offset="1"/>
</linearGradient>
<linearGradient id="paint1_linear_772_522" x1="270.733" y1="84.543" x2="271.911" y2="-6.20722" gradientUnits="userSpaceOnUse">
<stop stop-color="#181818"/>
<stop offset="1"/>
</linearGradient>
<linearGradient id="paint2_linear_772_522" x1="128.115" y1="133.689" x2="129.293" y2="42.939" gradientUnits="userSpaceOnUse">
<stop stop-color="#181818"/>
<stop offset="1"/>
</linearGradient>
<linearGradient id="paint3_linear_772_522" x1="39.1579" y1="95.9789" x2="40.3353" y2="5.22873" gradientUnits="userSpaceOnUse">
<stop stop-color="#181818"/>
<stop offset="1"/>
</linearGradient>
<linearGradient id="paint4_linear_772_522" x1="208.465" y1="133.689" x2="209.643" y2="42.939" gradientUnits="userSpaceOnUse">
<stop stop-color="#181818"/>
<stop offset="1"/>
</linearGradient>
<linearGradient id="paint5_linear_772_522" x1="91.5525" y1="198.814" x2="92.7299" y2="108.063" gradientUnits="userSpaceOnUse">
<stop stop-color="#181818"/>
<stop offset="1"/>
</linearGradient>
<linearGradient id="paint6_linear_772_522" x1="-13.4046" y1="227.502" x2="-12.2272" y2="136.752" gradientUnits="userSpaceOnUse">
<stop stop-color="#181818"/>
<stop offset="1"/>
</linearGradient>
<linearGradient id="paint7_linear_772_522" x1="322.6" y1="133.689" x2="323.777" y2="42.939" gradientUnits="userSpaceOnUse">
<stop stop-color="#181818"/>
<stop offset="1"/>
</linearGradient>
<linearGradient id="paint8_linear_772_522" x1="407.162" y1="149.332" x2="408.339" y2="58.5815" gradientUnits="userSpaceOnUse">
<stop stop-color="#181818"/>
<stop offset="1"/>
</linearGradient>
<linearGradient id="paint9_linear_772_522" x1="296.037" y1="225.53" x2="297.215" y2="134.78" gradientUnits="userSpaceOnUse">
<stop stop-color="#181818"/>
<stop offset="1"/>
</linearGradient>
<linearGradient id="paint10_linear_772_522" x1="202.145" y1="253.864" x2="204.122" y2="171.809" gradientUnits="userSpaceOnUse">
<stop stop-color="#181818"/>
<stop offset="1"/>
</linearGradient>
<linearGradient id="paint11_linear_772_522" x1="181.111" y1="118.825" x2="185.341" y2="117.157" gradientUnits="userSpaceOnUse">
<stop/>
<stop offset="1" stop-color="#AF8E76"/>
</linearGradient>
<linearGradient id="paint12_linear_772_522" x1="191.51" y1="122.843" x2="196.928" y2="113.112" gradientUnits="userSpaceOnUse">
<stop stop-color="#8F735F" stop-opacity="0"/>
<stop offset="1" stop-color="#72533D"/>
</linearGradient>
<linearGradient id="paint13_linear_772_522" x1="263.028" y1="295.343" x2="264.206" y2="204.593" gradientUnits="userSpaceOnUse">
<stop stop-color="#181818"/>
<stop offset="1"/>
</linearGradient>
<linearGradient id="paint14_linear_772_522" x1="128.115" y1="317.37" x2="129.293" y2="226.62" gradientUnits="userSpaceOnUse">
<stop stop-color="#181818"/>
<stop offset="1"/>
</linearGradient>
<linearGradient id="paint15_linear_772_522" x1="39.1579" y1="295.343" x2="40.3353" y2="204.593" gradientUnits="userSpaceOnUse">
<stop stop-color="#181818"/>
<stop offset="1"/>
</linearGradient>
<linearGradient id="paint16_linear_772_522" x1="57.8328" y1="373.013" x2="59.0102" y2="282.263" gradientUnits="userSpaceOnUse">
<stop stop-color="#181818"/>
<stop offset="1"/>
</linearGradient>
<linearGradient id="paint17_linear_772_522" x1="162.958" y1="411.184" x2="164.135" y2="320.434" gradientUnits="userSpaceOnUse">
<stop stop-color="#181818"/>
<stop offset="1"/>
</linearGradient>
<linearGradient id="paint18_linear_772_522" x1="375.858" y1="265.633" x2="377.036" y2="174.882" gradientUnits="userSpaceOnUse">
<stop stop-color="#181818"/>
<stop offset="1"/>
</linearGradient>
<linearGradient id="paint19_linear_772_522" x1="301.28" y1="373.013" x2="302.458" y2="282.263" gradientUnits="userSpaceOnUse">
<stop stop-color="#181818"/>
<stop offset="1"/>
</linearGradient>
<linearGradient id="paint20_linear_772_522" x1="253.24" y1="429.536" x2="254.418" y2="338.786" gradientUnits="userSpaceOnUse">
<stop stop-color="#181818"/>
<stop offset="1"/>
</linearGradient>
<linearGradient id="paint21_linear_772_522" x1="387.162" y1="398.784" x2="388.339" y2="308.034" gradientUnits="userSpaceOnUse">
<stop stop-color="#181818"/>
<stop offset="1"/>
</linearGradient>
<clipPath id="clip0_772_522">
<rect width="406.39" height="362.18" fill="white" transform="translate(0 0.183594)"/>
</clipPath>
</defs>
</svg>
