<svg width="407" height="363" viewBox="0 0 407 363" fill="none" xmlns="http://www.w3.org/2000/svg">
<g clip-path="url(#clip0_772_445)">
<mask id="mask0_772_445" style="mask-type:luminance" maskUnits="userSpaceOnUse" x="0" y="0" width="407" height="363">
<path d="M406.39 0.367188H0V362.547H406.39V0.367188Z" fill="white"/>
</mask>
<g mask="url(#mask0_772_445)">
<path d="M44.6261 336.163C46.7617 333.932 49.7164 332.67 52.8053 332.67H335.061C337.561 332.67 339.991 333.497 341.971 335.023L379.863 364.224C388.442 370.836 383.732 384.562 372.901 384.512L26.336 382.916C16.3945 382.87 11.3354 370.95 18.209 363.767L44.6261 336.163Z" fill="#393939"/>
<mask id="mask1_772_445" style="mask-type:luminance" maskUnits="userSpaceOnUse" x="15" y="332" width="370" height="53">
<path d="M44.6261 336.163C46.7617 333.932 49.7164 332.67 52.8053 332.67H335.061C337.561 332.67 339.991 333.497 341.971 335.023L379.863 364.224C388.442 370.836 383.732 384.562 372.901 384.512L26.336 382.916C16.3945 382.87 11.3354 370.95 18.209 363.767L44.6261 336.163Z" fill="white"/>
</mask>
<g mask="url(#mask1_772_445)">
<path d="M-1.93546 325.463C-1.93546 325.463 -21.8988 331.855 -19.3128 363.621C-16.7267 395.387 -4.84418 344.469 12.6433 344.587C30.1308 344.706 79.9832 352.854 114.981 353.3C149.98 353.746 129.302 339.225 152.637 346.372C175.973 353.518 207.8 345.21 201.402 336.658C195.005 328.106 218.505 334.521 218.505 334.521C218.505 334.521 241.396 362.463 257.827 362.463C293 360 270.406 363.153 284.226 334.847C284.226 334.847 337.791 352.788 344.279 334.333C350.768 315.877 12.1597 252.727 -1.93546 325.463Z" fill="#2F2D2D"/>
</g>
<g opacity="0.526919" filter="url(#filter0_f_772_445)">
<path opacity="0.683959" d="M70.4238 114.214C70.4238 106.055 77.0375 99.4419 85.1959 99.4419H301.691C309.849 99.4419 316.463 106.055 316.463 114.214V284.689C316.463 292.848 309.849 299.461 301.691 299.461H85.1959C77.0375 299.461 70.4238 292.848 70.4238 284.689V114.214Z" fill="white" fill-opacity="0.135983"/>
<path opacity="0.683959" d="M89.9258 122.728C89.9258 118.623 93.253 115.296 97.3573 115.296H289.529C293.633 115.296 296.961 118.623 296.961 122.728V276.175C296.961 280.28 293.633 283.607 289.529 283.607H97.3573C93.253 283.607 89.9258 280.28 89.9258 276.175V122.728Z" fill="white" fill-opacity="0.135983"/>
<path opacity="0.683959" d="M70.4238 27.6675C70.4238 23.2465 74.0077 19.6626 78.4287 19.6626H135.698C140.119 19.6626 143.703 23.2465 143.703 27.6675V79.5354C143.703 83.9565 140.119 87.5404 135.698 87.5404H78.4287C74.0077 87.5404 70.4238 83.9565 70.4238 79.5354V27.6675Z" fill="white" fill-opacity="0.135983"/>
<path opacity="0.683959" d="M156.803 27.6675C156.803 23.2465 160.387 19.6626 164.808 19.6626H222.078C226.499 19.6626 230.083 23.2465 230.083 27.6675V79.5354C230.083 83.9565 226.499 87.5404 222.078 87.5404H164.808C160.387 87.5404 156.803 83.9565 156.803 79.5354V27.6675Z" fill="white" fill-opacity="0.135983"/>
<path opacity="0.683959" d="M243.183 27.6675C243.183 23.2465 246.767 19.6626 251.188 19.6626H308.458C312.879 19.6626 316.463 23.2465 316.463 27.6675V79.5354C316.463 83.9565 312.879 87.5404 308.458 87.5404H251.188C246.767 87.5404 243.183 83.9565 243.183 79.5354V27.6675Z" fill="white" fill-opacity="0.135983"/>
<path d="M107.064 74.2823C109.498 74.2823 111.858 73.8563 114.143 73.0044C116.428 72.1524 118.511 70.9353 120.391 69.353L105.786 55.0317C105.583 54.8424 105.451 54.653 105.39 54.4637C105.329 54.2744 105.299 54.0445 105.299 53.774V32.9817C102.662 33.2116 100.2 33.9081 97.9154 35.0711C95.6299 36.2341 93.6216 37.7487 91.8906 39.615C90.1596 41.4812 88.8073 43.6078 87.8336 45.9947C86.8599 48.3815 86.373 50.9138 86.373 53.5915C86.373 56.4179 86.914 59.082 87.9959 61.5838C89.0777 64.0856 90.5722 66.2866 92.479 68.1866C94.3858 70.0867 96.5866 71.5776 99.0817 72.6595C101.576 73.7414 104.237 74.2823 107.064 74.2823ZM127.754 53.5915C127.754 52.0633 127.579 50.5352 127.227 49.007C126.875 47.4789 126.375 46.0657 125.726 44.7674L109.153 54.3014L122.399 67.3854C124.062 65.5597 125.371 63.45 126.324 61.0564C127.278 58.6627 127.754 56.1744 127.754 53.5915ZM108.017 51.8064L124.387 42.394C123.21 40.5549 121.753 38.9388 120.016 37.5459C118.278 36.153 116.381 35.0576 114.326 34.2597C112.27 33.4618 110.167 33.0155 108.017 32.9209V51.8064Z" fill="white" fill-opacity="0.135983"/>
<path d="M192.809 69.9023C192.999 69.9023 193.215 69.852 193.458 69.7514C193.7 69.6508 193.916 69.5413 194.106 69.4229C197.444 67.292 200.335 65.0576 202.78 62.7196C205.225 60.3816 207.113 57.9785 208.444 55.5103C209.776 53.0421 210.442 50.5472 210.442 48.0257C210.442 46.4512 210.191 45.01 209.687 43.7019C209.184 42.3938 208.486 41.2603 207.592 40.3014C206.698 39.3425 205.651 38.6027 204.449 38.0818C203.248 37.5609 201.948 37.3005 200.551 37.3005C198.823 37.3005 197.302 37.7414 195.988 38.6234C194.674 39.5053 193.614 40.6802 192.809 42.1481C192.016 40.6921 190.963 39.5201 189.649 38.6322C188.335 37.7444 186.808 37.3005 185.067 37.3005C183.671 37.3005 182.374 37.5609 181.179 38.0818C179.983 38.6027 178.935 39.3425 178.036 40.3014C177.136 41.2603 176.435 42.3938 175.931 43.7019C175.428 45.01 175.177 46.4512 175.177 48.0257C175.177 50.5472 175.843 53.0421 177.174 55.5103C178.506 57.9785 180.397 60.3816 182.848 62.7196C185.298 65.0576 188.193 67.292 191.531 69.4229C191.72 69.5413 191.936 69.6508 192.179 69.7514C192.422 69.852 192.632 69.9023 192.809 69.9023Z" fill="white" fill-opacity="0.135983"/>
<path d="M280.783 63.6133C282.346 63.6133 283.822 63.4258 285.213 63.0508C286.604 62.6758 287.889 62.1797 289.068 61.5625C290.248 60.9453 291.305 60.2657 292.238 59.5235C293.172 58.7813 293.969 58.0352 294.629 57.2852C295.289 56.5352 295.793 55.8418 296.141 55.2051C296.488 54.5684 296.662 54.0508 296.662 53.6524C296.662 53.2539 296.488 52.7364 296.141 52.0996C295.793 51.4629 295.289 50.7696 294.629 50.0196C293.969 49.2696 293.17 48.5235 292.232 47.7813C291.295 47.0391 290.236 46.3594 289.057 45.7422C287.877 45.125 286.594 44.6289 285.207 44.2539C283.82 43.8789 282.346 43.6914 280.783 43.6914C279.236 43.6914 277.771 43.8789 276.389 44.2539C275.006 44.6289 273.725 45.125 272.545 45.7422C271.365 46.3594 270.305 47.0391 269.363 47.7813C268.422 48.5235 267.617 49.2696 266.949 50.0196C266.281 50.7696 265.771 51.4629 265.42 52.0996C265.068 52.7364 264.893 53.2539 264.893 53.6524C264.893 54.0508 265.068 54.5684 265.42 55.2051C265.771 55.8418 266.281 56.5352 266.949 57.2852C267.617 58.0352 268.422 58.7813 269.363 59.5235C270.305 60.2657 271.365 60.9453 272.545 61.5625C273.725 62.1797 275.006 62.6758 276.389 63.0508C277.771 63.4258 279.236 63.6133 280.783 63.6133ZM280.783 60.1797C279.869 60.1797 279.016 60.0098 278.223 59.67C277.43 59.3301 276.734 58.8575 276.137 58.252C275.539 57.6465 275.072 56.9512 274.736 56.1661C274.4 55.3809 274.229 54.543 274.221 53.6524C274.213 52.7383 274.379 51.8868 274.719 51.0977C275.059 50.3086 275.527 49.6153 276.125 49.0176C276.723 48.42 277.42 47.9551 278.217 47.6231C279.014 47.2911 279.869 47.125 280.783 47.125C281.689 47.125 282.539 47.2911 283.332 47.6231C284.125 47.9551 284.82 48.42 285.418 49.0176C286.016 49.6153 286.484 50.3086 286.824 51.0977C287.164 51.8868 287.334 52.7383 287.334 53.6524C287.334 54.543 287.164 55.3809 286.824 56.1661C286.484 56.9512 286.016 57.6465 285.418 58.252C284.82 58.8575 284.125 59.3301 283.332 59.67C282.539 60.0098 281.689 60.1797 280.783 60.1797ZM280.783 56.0078C281.432 56.0078 281.99 55.7754 282.459 55.3106C282.928 54.8457 283.162 54.293 283.162 53.6524C283.162 53.0039 282.928 52.4473 282.459 51.9825C281.99 51.5176 281.432 51.2852 280.783 51.2852C280.127 51.2852 279.564 51.5176 279.096 51.9825C278.627 52.4473 278.393 53.0039 278.393 53.6524C278.393 54.293 278.627 54.8457 279.096 55.3106C279.564 55.7754 280.127 56.0078 280.783 56.0078Z" fill="white" fill-opacity="0.135983"/>
<path opacity="0.410756" d="M115.182 265.524L132.494 205.276L143.683 224.601L162.105 186.51L183.909 216.672L247.589 202.143L268.114 256.18L273.763 252.492L279.952 252.606L279.78 266.335L115.182 265.524Z" fill="url(#paint0_linear_772_445)"/>
<path d="M162.031 185.523C161.7 185.552 161.384 185.745 161.219 186.086L143.625 222.461L133.375 204.773C132.933 204.01 131.775 204.145 131.531 204.992L114.219 265.242C114.066 265.773 114.375 266.339 114.906 266.492C115.437 266.645 116.004 266.335 116.156 265.805L132.812 207.836L142.812 225.117C143.214 225.811 144.245 225.745 144.594 225.023L162.281 188.461L183.094 217.273C183.329 217.598 183.734 217.738 184.125 217.648L246.969 203.305L267.188 256.523C267.414 257.12 268.122 257.372 268.656 257.023L274.062 253.492L279.938 253.617C280.49 253.627 280.927 253.169 280.938 252.617C280.948 252.065 280.521 251.627 279.969 251.617L273.781 251.492C273.581 251.488 273.387 251.539 273.219 251.648L268.625 254.648L248.531 201.773C248.354 201.307 247.861 201.069 247.375 201.179L184.344 215.555L162.906 185.929C162.685 185.623 162.362 185.494 162.031 185.523Z" fill="white" fill-opacity="0.135983"/>
<path d="M107.062 128.429C106.51 128.429 106.062 128.877 106.062 129.429V265.805C106.062 266.081 106.163 266.342 106.344 266.523C106.526 266.716 106.776 266.836 107.062 266.836L279.812 266.805C280.365 266.804 280.813 266.357 280.812 265.805C280.812 265.252 280.365 264.804 279.812 264.805L108.062 264.836V129.429C108.062 128.877 107.615 128.429 107.062 128.429Z" fill="white" fill-opacity="0.135983"/>
</g>
<path d="M204.156 148.055C199.756 147.943 192.312 149.117 192.312 149.117C192.312 149.117 186.65 150.166 179.219 153.773C166.834 159.786 154.622 173.887 150.906 200.898C144.961 244.116 166.25 253.398 166.25 253.398C166.25 253.398 164.483 250.431 164.344 248.867C164.204 247.303 169.08 258.003 177 257.429L175.875 254.461C175.875 254.461 178.4 257.6 185.531 258.055C185.897 258.078 186.352 257.548 186.812 256.836C197.55 261.484 210.858 261.583 226.531 254.679C231.5 254.723 236.567 254.372 238.969 252.555C238.969 252.555 239.919 255.227 237.344 257.211C237.344 257.211 247.457 257.64 251.469 249.867C251.469 249.867 254.311 254.829 250.969 259.492C250.969 259.492 265.563 257.11 262.5 236.836C259.437 216.562 249.193 169.964 231.488 157.28C219.669 148.813 208.556 148.166 204.156 148.055Z" fill="black"/>
<path d="M205.875 157.336C188.021 156.232 172.4 171.58 168.625 192.492C167.624 191.568 156.426 181.592 153.688 198.586C153.688 198.586 150.94 219.789 169 213.305C172.842 230.468 185.081 243.414 200.5 244.367C220.086 245.578 237.17 227.083 238.656 203.055C240.142 179.026 225.461 158.547 205.875 157.336Z" fill="#B08E76"/>
<path d="M206.658 219.128C206.743 219.015 206.865 218.938 207.016 218.917C207.317 218.875 207.598 219.082 207.64 219.383C207.855 220.916 207.74 222.08 207.143 222.918C206.26 224.157 205.174 224.416 202.88 224.285C202.576 224.267 202.345 224.005 202.363 223.702C202.38 223.398 202.642 223.167 202.946 223.184C204.895 223.296 205.644 223.107 206.242 222.268C206.634 221.718 206.729 220.82 206.55 219.541C206.529 219.391 206.573 219.24 206.658 219.128Z" fill="#040302"/>
<path d="M196.101 183.47C193.761 187.509 186.709 191.451 182.211 187.982L196.101 183.47Z" fill="#040302"/>
<path d="M156.092 203.102C156.092 198.419 158.905 194.623 162.375 194.623C163.939 194.623 164.629 195.309 165.728 196.585C166.023 196.927 167.223 209.624 166.832 210C165.805 210.988 163.733 211.58 162.375 211.58C158.905 211.58 156.092 207.785 156.092 203.102Z" fill="#9B7B63"/>
<path d="M219.616 186.894C222.416 190.858 226.562 192.502 231.28 190.779L219.616 186.894Z" fill="#040302"/>
<path d="M179.825 208.691C180.074 208.516 180.418 208.575 180.593 208.823C180.634 208.88 180.732 209.115 180.766 209.187C180.977 209.642 181.275 210.075 181.677 210.447C182.079 210.818 182.585 211.128 183.213 211.337C183.75 211.516 184.364 211.605 185.045 211.603C185.304 211.603 185.556 211.576 185.798 211.535C187.182 211.299 188.243 210.455 189.057 209.254C189.224 209.008 189.643 208.271 189.759 208.188C190.008 208.013 190.352 208.072 190.527 208.321C190.703 208.569 190.644 208.913 190.395 209.089C190.499 209.015 190.439 209.087 190.502 208.971C190.515 208.947 190.426 209.114 190.393 209.175C190.263 209.41 190.138 209.632 189.977 209.869C189.009 211.296 187.708 212.335 185.981 212.629C185.678 212.68 185.361 212.701 185.041 212.702C184.243 212.704 183.525 212.596 182.873 212.379C181.295 211.853 180.311 210.822 179.77 209.658C179.737 209.587 179.718 209.521 179.693 209.459C179.518 209.211 179.577 208.867 179.825 208.691Z" fill="#040302"/>
<path d="M218.444 209.963C218.689 209.851 218.977 209.958 219.089 210.203C219.115 210.259 219.162 210.478 219.179 210.546C219.289 210.976 219.476 211.401 219.765 211.789C220.053 212.177 220.441 212.528 220.952 212.812C221.389 213.055 221.907 213.232 222.499 213.342C222.723 213.384 222.946 213.402 223.163 213.406C224.402 213.427 225.461 212.868 226.364 211.958C226.549 211.772 227.033 211.201 227.147 211.149C227.392 211.037 227.68 211.144 227.792 211.389C227.904 211.633 227.796 211.922 227.552 212.034C227.654 211.987 227.59 212.039 227.664 211.949C227.679 211.93 227.575 212.061 227.536 212.108C227.385 212.291 227.24 212.463 227.061 212.643C225.989 213.723 224.69 214.412 223.143 214.385C222.872 214.38 222.594 214.347 222.316 214.295C221.623 214.166 221.017 213.955 220.487 213.66C219.203 212.946 218.518 211.891 218.239 210.793C218.222 210.725 218.216 210.665 218.204 210.608C218.092 210.363 218.2 210.074 218.444 209.963Z" fill="#040302"/>
<path d="M196.336 233.548C198.091 231.686 208.154 229.806 207.625 234.021C207.531 234.774 195.142 234.499 196.336 233.548Z" fill="#040302"/>
<path d="M236.246 201.526C231.53 194.849 222.294 193.26 215.617 197.977C208.941 202.694 207.352 211.93 212.069 218.606C216.785 225.283 226.021 226.871 232.698 222.155C239.374 217.438 240.963 208.202 236.246 201.526Z" fill="white" fill-opacity="0.197876"/>
<path d="M215.233 197.439C222.209 192.511 231.853 194.17 236.781 201.146C241.709 208.122 240.05 217.766 233.074 222.694C226.098 227.622 216.455 225.963 211.526 218.987C206.598 212.011 208.257 202.368 215.233 197.439ZM215.999 198.524C209.622 203.029 208.106 211.844 212.611 218.221C217.116 224.598 225.931 226.114 232.308 221.609C238.685 217.104 240.201 208.289 235.696 201.912C231.191 195.536 222.376 194.019 215.999 198.524Z" fill="#040302"/>
<path d="M198.716 206.215C201.775 204.195 205.889 204.338 208.97 207.468C209.399 207.903 209.494 208.504 209.183 208.811C208.872 209.117 208.272 209.013 207.843 208.578C205.716 206.418 202.568 206.329 200.092 207.964C199.724 208.207 199.142 208.002 198.761 207.529C198.38 207.055 198.349 206.458 198.716 206.215Z" fill="#040302"/>
<path d="M196.214 199.3C191.497 192.624 182.261 191.035 175.585 195.752C168.908 200.468 167.32 209.704 172.036 216.381C176.753 223.057 185.989 224.646 192.665 219.929C199.342 215.213 200.93 205.977 196.214 199.3Z" fill="white" fill-opacity="0.197876"/>
<path d="M175.2 195.213C182.176 190.285 191.82 191.944 196.748 198.92C201.676 205.896 200.017 215.539 193.041 220.468C186.065 225.396 176.422 223.737 171.494 216.761C166.565 209.785 168.224 200.141 175.2 195.213ZM175.967 196.298C169.59 200.803 168.073 209.618 172.578 215.995C177.083 222.372 185.898 223.888 192.275 219.383C198.652 214.878 200.168 206.063 195.663 199.686C191.158 193.309 182.343 191.793 175.967 196.298Z" fill="#040302"/>
<path d="M168.5 195.5C168.5 195.5 198 191 220.335 173.215C220.335 173.215 231.869 198.982 238.044 203.101C238.044 203.101 255.637 189.595 233.773 169.167C211.909 148.738 186.049 152.209 177.89 163.585C171.649 172.288 165.072 177.867 165.684 186.5C165.871 189.152 166.738 192.093 168.5 195.5Z" fill="black"/>
<path d="M190.504 237.353L189.557 262.658C189.557 262.658 199.492 271.664 209.763 265.144L210.399 239.329L190.504 237.353Z" fill="#B08E76"/>
<path d="M190.328 241.946C190.328 241.946 194.243 245.071 202.982 244.555L189.691 261.035L190.328 241.946Z" fill="#8F735F"/>
<path d="M214.815 251.549C214.815 251.549 199.278 231.373 226.648 222.478L233.279 219.667C233.279 219.667 233.092 203.343 239.008 201.852C239.008 201.852 239.088 190.721 242.309 189.99L245.947 214.634C246.313 217.119 245.738 219.647 244.277 221.691C240.601 226.837 233.169 236.831 227.908 241.228L231.064 248.297L214.815 251.549Z" fill="#9A7860"/>
<path d="M169.137 259.617C158.651 260.094 138.63 263.205 128.544 269.773C108.372 282.91 53.5694 323.444 93.3122 342.711C93.3122 342.711 110.245 355.129 161.974 335.742C161.974 335.742 163.21 333.537 163.022 329.898C163.171 331.141 170.175 331.372 169.891 332.523L219.478 332.586V332.679C219.478 332.679 268.663 332.928 268.706 332.544C272.793 295.701 252.512 278.697 237.996 271.211C232.41 267.59 224.421 264.733 213.022 263.273C213.022 263.273 203.666 274.017 187.589 260.305C187.589 260.305 179.624 259.14 169.137 259.617Z" fill="black"/>
<path d="M189.822 258.714L189.597 260.843C189.597 260.843 199.484 268.847 210.037 263.684L210.075 261.209C210.075 261.209 217.355 264.329 211.238 267.513C202.567 272.026 184.056 265.664 185.431 261.206C186.261 258.519 189.822 258.714 189.822 258.714Z" fill="#4D4D4E"/>
<path d="M215.103 262.427C215.103 262.427 210.897 254.542 212.978 251.816C216.634 247.027 227.617 243.103 236.635 245.946C237.418 246.193 238.898 254.039 239.711 254.378C239.711 254.378 280.471 314.021 281.808 336.684C282.455 347.66 260.935 368.706 243.244 345.119C227.787 324.511 215.103 262.427 215.103 262.427Z" fill="#080808"/>
<path opacity="0.517468" d="M171.847 304.49L163.684 190.214C163.684 190.214 222.971 213.859 242.706 198.218L205.381 306.107C205.381 306.107 188.183 324.195 171.847 304.49Z" fill="url(#paint1_linear_772_445)"/>
<path d="M176.519 277.807C176.901 274.741 179.696 272.566 182.762 272.948L203.664 275.554C206.73 275.936 208.905 278.731 208.523 281.796L201.698 336.556C201.316 339.621 198.521 341.797 195.455 341.414L174.552 338.809C171.487 338.427 169.311 335.632 169.693 332.566L176.519 277.807Z" fill="#1F1F1F"/>
<path d="M182.826 272.435C179.47 272.016 176.406 274.39 175.988 277.746C175.774 279.458 169.395 330.779 169.182 332.49C168.764 335.847 171.137 338.911 174.494 339.329L195.375 341.952C198.732 342.37 201.796 339.964 202.214 336.607L209.053 281.863C209.471 278.506 207.098 275.442 203.741 275.024L182.826 272.435ZM182.694 273.464L203.608 276.086C206.383 276.432 208.336 278.956 207.991 281.73L201.185 336.474C200.839 339.248 198.283 341.235 195.508 340.889L174.626 338.267C171.852 337.921 169.865 335.397 170.211 332.623C170.424 330.912 176.837 279.59 177.05 277.879C177.396 275.105 179.919 273.118 182.694 273.464Z" fill="#4A4949"/>
<path d="M156.974 314.507C156.974 314.507 165.212 300.009 164.79 293.305C164.367 286.6 168.332 286.993 170.361 290.695C172.391 294.396 170.972 303.065 170.972 303.065C170.972 303.065 199.522 281.981 202.567 285.407C202.567 285.407 203.98 290.055 190.948 298.461L182.958 306.055C182.958 306.055 199.465 299.667 207.877 303.174C207.877 303.174 212.172 306.03 206.479 308.034L202.191 308.389C202.191 308.389 208.477 309.442 205.139 315.853C205.139 315.853 202.567 314.336 189.691 317.172L198.478 317.033C198.478 317.033 203.953 320.577 204.129 323.118C204.129 323.118 203.545 324.781 196.744 322.764L187.121 325.986C187.121 325.986 165.803 341.22 153.538 332.67C141.273 324.12 156.974 314.507 156.974 314.507Z" fill="#B89983"/>
<path d="M158.598 310.153C158.598 310.153 162.302 334.472 164.368 335.52C164.368 335.52 157.787 337.037 148.855 339.746C126.901 346.403 88.2018 354.851 79.5561 326.273C79.5561 326.273 75.1295 283.917 144.251 309.231C148.712 310.865 153.504 307.882 158.598 310.153Z" fill="#080808"/>
<path d="M318.632 282.308C318.632 282.308 329.809 289.127 328.435 273.297C327.06 257.468 319.716 247.855 317.559 248.035C317.559 248.035 302.491 273.487 310.005 281.172C317.52 288.857 317.691 283.913 318.598 283.147C319.505 282.38 318.632 282.308 318.632 282.308Z" fill="#FFFFE7"/>
<path d="M317.531 247.523C317.37 247.537 317.207 247.634 317.125 247.773C317.048 247.903 316.918 248.171 316.719 248.523C316.387 249.109 316.023 249.779 315.625 250.523C314.489 252.648 313.342 254.938 312.281 257.305C311.002 260.159 309.914 262.932 309.094 265.555C306.778 272.955 306.712 278.512 309.656 281.523C314.533 286.511 316.955 286.955 318.375 284.492C318.457 284.349 318.72 283.812 318.781 283.711C318.839 283.615 318.879 283.546 318.906 283.523C319.063 283.391 319.061 283.275 319.156 283.148C319.409 283.271 319.653 283.377 319.938 283.492C321.172 283.991 322.415 284.299 323.594 284.273C327.499 284.189 329.591 280.763 328.938 273.242C328.311 266.027 326.386 259.536 323.719 254.429C321.517 250.214 319.016 247.399 317.531 247.523ZM317.781 248.679C318.76 248.826 320.919 251.215 322.844 254.898C325.45 259.888 327.322 266.253 327.938 273.336C328.546 280.347 326.822 283.203 323.594 283.273C322.57 283.295 321.432 283.038 320.312 282.586C319.933 282.432 319.596 282.25 319.281 282.086C319.155 282.02 319.104 281.971 319.031 281.929C319.021 281.923 319.009 281.904 319 281.898C318.962 281.883 318.942 281.877 318.906 281.867C318.824 281.843 318.752 281.81 318.688 281.805C318.174 281.762 317.966 282.424 318.375 282.711C318.339 282.745 318.351 282.714 318.281 282.773C318.155 282.88 318.047 282.999 317.938 283.179C317.856 283.314 317.566 283.877 317.5 283.992C316.507 285.715 314.858 285.421 310.375 280.836C307.776 278.178 307.849 272.909 310.062 265.836C310.87 263.254 311.923 260.531 313.188 257.711C314.238 255.367 315.374 253.097 316.5 250.992C316.894 250.255 317.266 249.571 317.594 248.992C317.683 248.834 317.716 248.793 317.781 248.679Z" fill="#646464"/>
<path d="M325.275 287.983C325.275 287.983 314.045 293.008 314.288 284.525C314.531 276.042 327.165 258.049 347.602 262.383C347.602 262.383 345.091 262.125 343.567 271.779C342.043 281.434 335.211 306.356 325.275 287.983Z" fill="#1E1E1D"/>
<path d="M312.055 281.349C312.055 281.349 319.218 284.814 319.212 277.523C319.206 270.231 311.051 261.036 303.213 263.967C295.375 266.898 296.98 268.92 296.98 268.92C296.98 268.92 302.018 266.725 301.816 276.87C301.644 285.462 307.481 287.941 312.055 281.349Z" fill="#E16633"/>
<path d="M318.632 282.308C318.632 282.308 329.809 289.127 328.435 273.297C327.06 257.468 319.716 247.855 317.559 248.035C317.559 248.035 302.491 273.487 310.005 281.172C317.52 288.857 317.691 283.913 318.598 283.147C319.505 282.38 318.632 282.308 318.632 282.308Z" fill="#393939"/>
<path d="M325.275 287.983C325.275 287.983 314.045 293.008 314.288 284.525C314.531 276.042 327.165 258.049 347.602 262.383C347.602 262.383 345.091 262.125 343.567 271.779C342.043 281.434 335.211 306.356 325.275 287.983Z" fill="black"/>
<path d="M312.055 281.349C312.055 281.349 319.218 284.814 319.212 277.523C319.206 270.231 311.051 261.036 303.213 263.967C295.375 266.898 296.98 268.92 296.98 268.92C296.98 268.92 302.018 266.725 301.816 276.87C301.644 285.462 307.481 287.941 312.055 281.349Z" fill="#6C6C6C"/>
<path d="M340.812 261.211C334.114 261.354 328.045 263.894 323.031 268.273C317.573 273.041 313.918 279.744 313.781 284.523C313.664 288.607 316.022 290.227 319.812 289.929C320.955 289.84 322.182 289.588 323.406 289.211C323.943 289.045 324.45 288.857 324.906 288.679C325.013 288.638 325.042 288.62 325.125 288.586C329.674 296.68 334.187 296.89 338 290.648C340.722 286.193 343.022 278.462 344.062 271.867C344.457 269.364 344.922 267.405 345.469 265.929C345.991 264.52 346.542 263.636 347.062 263.179C347.332 262.943 347.501 262.864 347.562 262.867C348.191 262.932 348.337 262.029 347.719 261.898C347.698 261.894 347.677 261.903 347.656 261.898C347.646 261.896 347.636 261.9 347.625 261.898C345.297 261.412 343.015 261.164 340.812 261.211ZM340.844 262.211C342.583 262.174 344.395 262.436 346.219 262.742C345.63 263.342 345.05 264.186 344.531 265.586C343.96 267.129 343.467 269.147 343.062 271.711C342.04 278.187 339.795 285.797 337.156 290.117C333.675 295.815 329.997 295.654 325.719 287.742C325.594 287.512 325.301 287.416 325.062 287.523C324.967 287.566 324.79 287.641 324.531 287.742C324.097 287.911 323.606 288.084 323.094 288.242C321.935 288.599 320.81 288.846 319.75 288.929C316.493 289.186 314.684 287.961 314.781 284.555C314.909 280.078 318.426 273.619 323.688 269.023C328.53 264.794 334.381 262.347 340.844 262.211Z" fill="#646464"/>
<path d="M330.625 280.179C327.591 282.631 325.002 286.298 322.812 290.836C321.352 293.862 320.17 297.098 319.219 300.336C318.965 301.198 318.754 301.953 318.562 302.711C318.307 301.451 318.139 299.952 318.125 298.023C318.112 296.24 318.193 294.337 318.344 292.429C318.393 291.807 318.549 290.17 318.562 290.055L317.562 289.929C317.548 290.051 317.393 291.705 317.344 292.336C317.191 294.269 317.112 296.208 317.125 298.023C317.147 301.13 317.465 303.518 318.156 304.961C318.364 305.394 319 305.307 319.094 304.836C319.104 304.785 319.266 304.004 319.344 303.679C319.567 302.75 319.828 301.733 320.156 300.617C321.093 297.428 322.285 294.246 323.719 291.273C325.849 286.858 328.348 283.306 331.25 280.961L330.625 280.179Z" fill="#646464"/>
<path d="M305.938 262.929C304.96 262.953 303.985 263.135 303.031 263.492C297.533 265.548 295.799 267.449 296.438 268.992C296.482 269.099 296.549 269.186 296.594 269.242C296.735 269.419 296.98 269.458 297.188 269.367C297.222 269.352 297.288 269.335 297.406 269.305C297.976 269.158 298.59 269.185 299.156 269.492C300.543 270.245 301.399 272.521 301.312 276.867C301.135 285.744 307.364 288.554 312.219 281.961C312.449 282.054 312.697 282.155 312.969 282.242C313.871 282.531 314.793 282.701 315.656 282.679C318.168 282.617 319.721 280.984 319.719 277.523C319.713 270.204 312.779 262.762 305.938 262.929ZM306.031 263.929C312.263 263.826 318.713 270.756 318.719 277.523C318.721 280.445 317.59 281.631 315.625 281.679C314.889 281.698 314.086 281.531 313.281 281.273C313.014 281.188 312.752 281.115 312.531 281.023C312.401 280.969 312.326 280.92 312.281 280.898C312.06 280.791 311.797 280.852 311.656 281.055C307.372 287.229 302.151 284.972 302.312 276.867C302.406 272.187 301.411 269.586 299.625 268.617C298.919 268.234 298.199 268.188 297.5 268.305C297.512 268.084 297.487 267.882 297.844 267.492C298.685 266.572 300.451 265.523 303.375 264.429C304.237 264.107 305.141 263.944 306.031 263.929Z" fill="#646464"/>
<path d="M310.25 275.711L309.5 276.336C309.535 276.379 309.608 276.507 309.719 276.679C309.911 276.977 310.11 277.343 310.344 277.805C311.02 279.138 311.708 280.863 312.344 283.055C313.85 288.246 314.881 295.104 315.188 303.836L316.188 303.805C315.879 294.993 314.843 288.079 313.312 282.805C312.659 280.554 311.955 278.726 311.25 277.336C310.82 276.488 310.457 275.966 310.25 275.711Z" fill="#646464"/>
<path d="M303.292 300.592V327.553H303.357C306.329 332.618 311.779 336.046 318.076 336.046C324.373 336.046 329.81 332.618 332.782 327.553H332.848V300.592H303.292Z" fill="#393939"/>
</g>
</g>
<defs>
<filter id="filter0_f_772_445" x="67.1847" y="16.4235" width="252.518" height="286.277" filterUnits="userSpaceOnUse" color-interpolation-filters="sRGB">
<feFlood flood-opacity="0" result="BackgroundImageFix"/>
<feBlend mode="normal" in="SourceGraphic" in2="BackgroundImageFix" result="shape"/>
<feGaussianBlur stdDeviation="1.61956" result="effect1_foregroundBlur_772_445"/>
</filter>
<linearGradient id="paint0_linear_772_445" x1="164.425" y1="214.293" x2="165.584" y2="266.815" gradientUnits="userSpaceOnUse">
<stop stop-color="white" stop-opacity="0.135983"/>
<stop offset="1" stop-opacity="0.856811"/>
</linearGradient>
<linearGradient id="paint1_linear_772_445" x1="190.616" y1="305.374" x2="199.364" y2="234.876" gradientUnits="userSpaceOnUse">
<stop stop-color="#FFD600"/>
<stop offset="1" stop-color="#FFD600" stop-opacity="0"/>
</linearGradient>
<clipPath id="clip0_772_445">
<rect width="406.39" height="362.18" fill="white" transform="translate(0 0.367188)"/>
</clipPath>
</defs>
</svg>
