<svg width="407" height="363" viewBox="0 0 407 363" fill="none" xmlns="http://www.w3.org/2000/svg">
<g clip-path="url(#clip0_772_659)">
<path d="M236.797 115.535C236.797 108.732 242.312 103.216 249.115 103.216H344.285C351.088 103.216 356.603 108.732 356.603 115.535V345.232C356.603 352.035 351.088 357.55 344.285 357.55H249.115C242.312 357.55 236.797 352.035 236.797 345.232V115.535Z" fill="url(#paint0_linear_772_659)"/>
<path d="M230.612 133.215C230.612 132.648 231.086 132.174 231.654 132.174C232.221 132.174 232.695 132.648 232.695 133.215V143.253C232.695 143.82 232.221 144.294 231.654 144.294C231.086 144.294 230.612 143.82 230.612 143.253V133.215Z" fill="black"/>
<path d="M230.612 152.059C230.612 151.491 231.086 151.018 231.654 151.018C232.221 151.018 232.695 151.491 232.695 152.059V170.903C232.695 171.471 232.221 171.945 231.654 171.945C231.086 171.945 230.612 171.471 230.612 170.903V152.059Z" fill="black"/>
<path d="M230.612 176.489C230.612 175.922 231.086 175.448 231.654 175.448C232.221 175.448 232.695 175.922 232.695 176.489V195.239C232.695 195.807 232.221 196.375 231.654 196.375C231.086 196.375 230.612 195.807 230.612 195.239V176.489Z" fill="black"/>
<mask id="mask0_772_659" style="mask-type:luminance" maskUnits="userSpaceOnUse" x="361" y="158" width="3" height="33">
<path d="M361.329 158.112H363.766V190.408H361.329V158.112Z" fill="white"/>
</mask>
<g mask="url(#mask0_772_659)">
<path d="M361.614 159.256C361.614 158.687 362.088 158.215 362.656 158.215C363.223 158.215 363.697 158.687 363.697 159.256V188.99C363.697 189.651 363.223 190.125 362.656 190.125C362.088 190.125 361.614 189.651 361.614 188.99V159.256Z" fill="black"/>
</g>
<mask id="mask1_772_659" style="mask-type:luminance" maskUnits="userSpaceOnUse" x="231" y="97" width="132" height="265">
<path d="M231.749 97.6108H362.511V361.99H231.749V97.6108Z" fill="white"/>
</mask>
<g mask="url(#mask1_772_659)">
<path fill-rule="evenodd" clip-rule="evenodd" d="M248.42 97.6108H345.51C354.698 97.6108 362.182 105.093 362.182 114.278V345.325C362.182 354.51 354.698 361.99 345.51 361.99H248.42C239.231 361.99 231.749 354.51 231.749 345.325V114.278C231.749 105.093 239.231 97.6108 248.42 97.6108ZM252.208 105.945H341.816C348.826 105.945 354.605 111.721 354.605 118.727V341.537C354.605 348.545 348.826 354.321 341.816 354.321H252.208C245.105 354.321 239.326 348.545 239.326 341.537V118.727C239.326 111.721 245.105 105.945 252.208 105.945Z" fill="url(#paint1_linear_772_659)"/>
</g>
<path fill-rule="evenodd" clip-rule="evenodd" d="M249.84 99.3154H344.09C352.994 99.3154 360.288 106.607 360.288 115.413V343.621C360.288 352.522 352.994 359.813 344.09 359.813H249.84C240.937 359.813 233.643 352.522 233.643 343.621V115.413C233.643 106.607 240.937 99.3154 249.84 99.3154ZM329.124 105.945C329.124 106.228 329.124 106.513 329.124 106.891C329.124 111.058 325.714 114.467 321.546 114.467H272.1C267.932 114.467 264.522 111.058 264.522 106.891C264.522 106.513 264.618 106.228 264.618 105.945H252.208C245.105 105.945 239.326 111.721 239.326 118.727V341.537C239.326 348.545 245.105 354.321 252.208 354.321H341.816C348.826 354.321 354.605 348.545 354.605 341.537V118.727C354.605 111.721 348.826 105.945 341.816 105.945H329.124Z" fill="url(#paint2_linear_772_659)"/>
<path d="M313.589 108.122C313.589 108.271 313.574 108.419 313.546 108.565C313.517 108.711 313.474 108.854 313.415 108.991C313.358 109.13 313.289 109.261 313.206 109.385C313.123 109.508 313.029 109.624 312.923 109.73C312.818 109.834 312.703 109.928 312.578 110.011C312.455 110.094 312.323 110.165 312.186 110.222C312.047 110.279 311.906 110.322 311.76 110.351C311.612 110.381 311.464 110.394 311.315 110.394C311.166 110.394 311.018 110.381 310.872 110.351C310.726 110.322 310.584 110.279 310.446 110.222C310.307 110.165 310.177 110.094 310.052 110.011C309.929 109.928 309.814 109.834 309.707 109.73C309.603 109.624 309.509 109.508 309.426 109.385C309.343 109.261 309.272 109.13 309.215 108.991C309.158 108.854 309.115 108.711 309.086 108.565C309.057 108.419 309.043 108.271 309.043 108.122C309.043 107.973 309.057 107.825 309.086 107.679C309.115 107.533 309.158 107.39 309.215 107.253C309.272 107.114 309.343 106.983 309.426 106.859C309.509 106.736 309.603 106.62 309.707 106.516C309.814 106.41 309.929 106.316 310.052 106.233C310.177 106.15 310.307 106.08 310.446 106.022C310.584 105.965 310.726 105.922 310.872 105.893C311.018 105.863 311.166 105.85 311.315 105.85C311.464 105.85 311.612 105.863 311.76 105.893C311.906 105.922 312.047 105.965 312.186 106.022C312.323 106.08 312.455 106.15 312.578 106.233C312.703 106.316 312.818 106.41 312.923 106.516C313.029 106.62 313.123 106.736 313.206 106.859C313.289 106.983 313.358 107.114 313.415 107.253C313.474 107.39 313.517 107.533 313.546 107.679C313.574 107.825 313.589 107.973 313.589 108.122Z" fill="#3E3E3E"/>
<path fill-rule="evenodd" clip-rule="evenodd" d="M296.701 107.365C297.221 107.365 297.736 107.371 298.247 107.384C298.758 107.394 299.253 107.413 299.735 107.437C300.215 107.46 300.672 107.49 301.105 107.524C301.538 107.559 301.938 107.597 302.306 107.642C302.675 107.685 303.002 107.734 303.292 107.785C303.581 107.837 303.826 107.891 304.026 107.95C304.224 108.007 304.375 108.065 304.476 108.127C304.578 108.188 304.629 108.25 304.629 108.311C304.629 108.373 304.578 108.434 304.476 108.496C304.375 108.557 304.224 108.616 304.026 108.673C303.826 108.731 303.581 108.785 303.292 108.837C303.002 108.888 302.675 108.936 302.306 108.98C301.938 109.025 301.538 109.064 301.105 109.097C300.672 109.133 300.215 109.162 299.735 109.185C299.253 109.21 298.758 109.227 298.247 109.239C297.736 109.251 297.221 109.257 296.701 109.257C296.179 109.257 295.664 109.251 295.153 109.239C294.642 109.227 294.147 109.21 293.665 109.185C293.185 109.162 292.728 109.133 292.296 109.097C291.862 109.064 291.462 109.025 291.094 108.98C290.725 108.936 290.397 108.888 290.108 108.837C289.819 108.785 289.574 108.731 289.376 108.673C289.176 108.616 289.025 108.557 288.923 108.496C288.822 108.434 288.771 108.373 288.771 108.311C288.771 108.25 288.822 108.188 288.923 108.127C289.025 108.065 289.176 108.007 289.376 107.95C289.574 107.891 289.819 107.837 290.108 107.785C290.397 107.734 290.725 107.685 291.094 107.642C291.462 107.597 291.862 107.559 292.296 107.524C292.728 107.49 293.185 107.46 293.665 107.437C294.147 107.413 294.642 107.394 295.153 107.384C295.664 107.371 296.179 107.365 296.701 107.365Z" fill="#3E3E3E"/>
<path opacity="0.58266" d="M294.189 169.778C294.189 165.77 297.438 162.522 301.445 162.522H362.755C366.762 162.522 370.011 165.77 370.011 169.778V218.077C370.011 222.084 366.762 225.332 362.755 225.332H301.445C297.438 225.332 294.189 222.084 294.189 218.077V169.778Z" fill="white" fill-opacity="0.197876"/>
<path opacity="0.218457" d="M232.134 140.996C232.134 137.723 234.787 135.07 238.06 135.07H282.775C286.048 135.07 288.701 137.723 288.701 140.996V191.954C288.701 195.227 286.048 197.881 282.775 197.881H238.06C234.787 197.881 232.134 195.227 232.134 191.954V140.996Z" fill="white" fill-opacity="0.197876"/>
<path opacity="0.218457" d="M294.189 239.701C294.189 237.547 295.936 235.801 298.09 235.801H366.11C368.265 235.801 370.011 237.547 370.011 239.701V259.909C370.011 262.063 368.265 263.809 366.11 263.809H298.09C295.936 263.809 294.189 262.063 294.189 259.909V239.701Z" fill="white" fill-opacity="0.197876"/>
<path opacity="0.357707" d="M244.958 287.276C244.958 285.122 246.704 283.375 248.859 283.375H316.879C319.034 283.375 320.78 285.122 320.78 287.276V307.483C320.78 309.638 319.034 311.384 316.879 311.384H248.859C246.704 311.384 244.958 309.638 244.958 307.483V287.276Z" fill="white" fill-opacity="0.197876"/>
<path d="M287.974 182.483C278.53 182.378 272.694 192.42 278.71 207.323C278.71 207.323 283.905 217.932 295.277 218.332L297.209 227.431C297.209 227.431 303.922 229.818 307.909 227.136L306.415 213.707C309.844 209.513 309.685 204.21 307.658 199.122C313.125 196.797 311.396 185.522 305.151 186.426C302.609 186.794 302.121 188.799 302.049 189.176C297.13 184.613 292.191 182.53 287.974 182.483Z" fill="#AF8E76"/>
<mask id="mask2_772_659" style="mask-type:luminance" maskUnits="userSpaceOnUse" x="276" y="182" width="35" height="47">
<path d="M287.974 182.483C278.53 182.378 272.694 192.42 278.71 207.323C278.71 207.323 283.905 217.932 295.277 218.332L297.209 227.431C297.209 227.431 303.922 229.818 307.909 227.136L306.415 213.707C309.844 209.513 309.685 204.21 307.658 199.122C313.125 196.797 311.396 185.522 305.151 186.426C302.609 186.794 302.121 188.799 302.049 189.176C297.13 184.613 292.191 182.53 287.974 182.483Z" fill="white"/>
</mask>
<g mask="url(#mask2_772_659)">
<path d="M295.228 218.253C295.228 218.253 298.556 218.339 300.973 216.896L297.162 226.689L295.228 218.253Z" fill="#8F735F"/>
<path d="M304.396 191.115C304.396 191.115 305.597 186.456 308.858 189.604C308.858 189.604 311.841 193.177 307.71 197.004L304.396 191.115Z" fill="#8F735F"/>
<path d="M293.36 207.69C293.304 207.672 293.244 207.675 293.187 207.704C293.075 207.762 293.029 207.9 293.087 208.013C293.383 208.587 293.702 208.955 294.107 209.097C294.706 209.307 295.138 209.133 295.888 208.537C295.987 208.458 296.003 208.313 295.924 208.214C295.845 208.114 295.7 208.099 295.6 208.178C294.963 208.685 294.663 208.801 294.257 208.659C293.991 208.566 293.743 208.283 293.496 207.804C293.467 207.748 293.416 207.707 293.36 207.69Z" fill="#040302"/>
<path d="M289.838 191.461C291.607 192.273 294.958 191.92 295.655 189.656L289.838 191.461Z" fill="#040302"/>
<path d="M283.675 197.563C283.675 199.587 282.658 201.145 280.637 201.693L283.675 197.563Z" fill="#040302"/>
<path d="M299.988 197.679C299.861 197.679 299.758 197.782 299.758 197.909C299.758 197.938 299.781 198.041 299.787 198.074C299.825 198.28 299.827 198.499 299.78 198.722C299.732 198.946 299.635 199.173 299.471 199.395C299.331 199.585 299.143 199.763 298.911 199.927C298.823 199.989 298.731 200.04 298.638 200.085C298.11 200.337 297.546 200.305 296.979 200.092C296.863 200.048 296.543 199.898 296.484 199.898C296.357 199.898 296.254 200.001 296.254 200.128C296.254 200.255 296.357 200.357 296.484 200.357C296.431 200.357 296.468 200.367 296.419 200.343C296.409 200.338 296.479 200.374 296.505 200.386C296.606 200.435 296.702 200.48 296.814 200.523C297.487 200.776 298.18 200.816 298.839 200.501C298.955 200.446 299.068 200.377 299.177 200.3C299.449 200.109 299.668 199.899 299.837 199.668C300.248 199.109 300.336 198.521 300.239 197.995C300.234 197.963 300.224 197.936 300.218 197.909C300.218 197.782 300.115 197.679 299.988 197.679Z" fill="#040302"/>
<path d="M287.141 207.404C287.03 207.425 286.958 207.531 286.979 207.641C286.983 207.666 287.02 207.753 287.031 207.78C287.097 207.952 287.135 208.142 287.13 208.344C287.126 208.545 287.077 208.759 286.971 208.978C286.881 209.166 286.748 209.351 286.573 209.531C286.506 209.599 286.435 209.659 286.362 209.712C285.945 210.018 285.45 210.082 284.923 209.99C284.816 209.971 284.513 209.892 284.462 209.902C284.352 209.923 284.279 210.029 284.3 210.139C284.321 210.249 284.426 210.322 284.536 210.301C284.49 210.31 284.525 210.312 284.478 210.299C284.469 210.296 284.536 210.316 284.56 210.322C284.656 210.348 284.746 210.372 284.85 210.39C285.476 210.5 286.084 210.422 286.604 210.041C286.696 209.974 286.782 209.896 286.864 209.811C287.07 209.601 287.225 209.383 287.335 209.155C287.6 208.603 287.58 208.079 287.41 207.637C287.4 207.61 287.388 207.588 287.378 207.566C287.357 207.456 287.251 207.383 287.141 207.404Z" fill="#040302"/>
<path d="M300.025 209.749C298.958 209.749 295.509 212.265 296.939 213.31C299.123 214.906 301.556 209.53 300.025 209.749Z" fill="#040302"/>
</g>
<path d="M274.516 310.941C274.516 310.941 304.983 318.206 325.314 311.142L327.898 355.231L300.36 356.09L297.951 338.261L296.718 355.62L268.743 355.116C268.743 355.116 269.336 307.139 274.516 310.941Z" fill="url(#paint3_linear_772_659)"/>
<path d="M273.438 310.344C273.007 310.542 272.615 310.971 272.281 311.625C271.748 312.672 271.267 314.335 270.844 316.594C270.113 320.491 269.535 326.06 269.094 332.875C268.779 337.737 268.562 342.949 268.406 348.156C268.352 349.979 268.251 355.038 268.25 355.125C268.247 355.4 268.444 355.62 268.719 355.625L296.719 356.125C296.985 356.13 297.2 355.921 297.219 355.656L298.094 343.031L299.875 356.156C299.909 356.41 300.119 356.602 300.375 356.594L327.906 355.719C328.188 355.71 328.423 355.469 328.406 355.188L325.812 311.125C325.793 310.794 325.47 310.547 325.156 310.656C320.446 312.293 314.92 313.257 308.781 313.594C300.663 314.04 291.983 313.412 283.406 312.094C281.073 311.735 278.906 311.353 277 310.969C276.333 310.834 274.73 310.494 274.625 310.469L274.812 310.531C274.332 310.178 273.868 310.146 273.438 310.344ZM273.719 311.312C273.886 311.2 274.049 311.219 274.219 311.344L274.406 311.438C274.517 311.464 276.14 311.802 276.812 311.938C278.734 312.324 280.901 312.733 283.25 313.094C291.89 314.421 300.647 315.044 308.844 314.594C314.819 314.266 320.169 313.33 324.844 311.781L327.375 354.75L300.781 355.594L298.438 338.281V338.188C298.357 337.591 297.48 337.619 297.438 338.219L296.25 355.125L269.25 354.625C269.264 353.924 269.356 349.875 269.406 348.188C269.561 342.991 269.78 337.817 270.094 332.969C270.533 326.191 271.122 320.63 271.844 316.781C272.251 314.609 272.676 313.035 273.156 312.094C273.369 311.677 273.551 311.425 273.719 311.312Z" fill="url(#paint4_linear_772_659)"/>
<path d="M311.443 226.315C311.443 226.315 325.84 232.734 330.827 237.464C330.827 237.464 341.528 276.552 341.729 284.515C341.729 284.515 346.496 329.148 346.496 333.408C346.496 337.669 337.84 342.982 332.468 339.757C332.468 339.757 325.283 305.377 324.736 296.675L327.06 313.056C327.06 313.056 317.293 318.16 295.2 315.787C273.108 313.414 270.372 318.691 270.685 304.744C270.998 290.797 270.356 264.872 269.425 254.758C268.768 247.628 251.879 263.814 242.942 258.303C234.004 252.792 234.147 242.971 238.495 228.97C242.843 214.969 263.496 200.959 263.496 200.959C263.496 200.959 267.036 216.299 266.598 221.339C266.16 226.379 253.672 229.254 253.672 232.608C253.672 232.608 260.943 228.864 268.743 226.728C276.543 224.591 295.145 225.91 295.145 225.91C295.145 225.91 293.156 231.278 311.443 226.315Z" fill="url(#paint5_linear_772_659)"/>
<path d="M330.442 329.236L333.072 343.71L347.733 339.762L345.327 318.467L330.442 329.236Z" fill="url(#paint6_linear_772_659)"/>
<path d="M295.696 226.175C295.696 226.175 301.822 229.071 308.786 225.348C308.786 225.348 309.431 224.924 307.844 224.626L307.636 224.246C307.636 224.246 314.398 225.626 308.404 228.032C304.396 229.641 294.72 229.801 293.601 227.25C293.087 226.078 295.384 225.722 296.262 225.584L295.696 226.175Z" fill="#4E4E4E"/>
<path d="M289.877 174.663C285.856 174.538 283.119 175.209 283.119 175.209C283.119 175.209 277.851 175.03 272.922 182.849C268.3 190.182 268.753 217.423 271.428 227.115C274.104 236.807 281.051 234.95 281.051 234.95C278.637 233.532 278.918 230.727 278.918 230.727C282.249 233.403 286.653 231.187 286.653 231.187C285.113 230.815 285.008 229.42 285.008 229.42C288.374 230.202 296.697 224.772 296.697 224.772L295.28 218.264C292.163 218.355 289.473 217.227 289.473 217.227C281.336 213.147 278.71 207.323 278.71 207.323C278.522 206.856 278.38 206.409 278.215 205.952C278.56 204.909 279.289 203.573 280.864 201.988C284.569 198.26 287.664 194.945 289.289 188.474C289.479 188.839 293.412 192.121 302.369 189.891C302.383 189.904 302.529 189.311 302.531 189.301C302.558 189.294 302.115 189.119 302.143 189.112C302.143 189.112 302.109 188.998 302.107 188.989C302.249 188.409 302.83 186.762 305.151 186.426C311.396 185.522 313.125 196.797 307.658 199.122C310.102 205.258 309.959 210.702 303.945 215.138C303.614 215.382 308.885 221.677 309.847 221.167C312.926 219.533 313.424 217.625 313.424 217.625L313.51 219.176C317.144 217.844 317.182 212.078 317.431 212.806C317.681 213.534 317.496 215.212 317.496 215.212C317.496 215.212 325.11 206.789 313.862 188.63C306.833 177.281 296.578 174.871 289.877 174.663Z" fill="black"/>
<path d="M279.047 208.814C279.047 205.405 281.811 202.642 285.219 202.642C288.628 202.642 291.392 205.405 291.392 208.814C291.392 212.223 288.628 214.986 285.219 214.986C281.811 214.986 279.047 212.223 279.047 208.814Z" fill="white" fill-opacity="0.197876"/>
<path d="M285.221 202.366C281.659 202.366 278.774 205.251 278.774 208.813C278.774 212.375 281.659 215.26 285.221 215.26C288.783 215.26 291.668 212.375 291.668 208.813C291.668 205.251 288.783 202.366 285.221 202.366ZM285.221 202.92C288.477 202.92 291.114 205.557 291.114 208.813C291.114 212.069 288.477 214.706 285.221 214.706C281.965 214.706 279.327 212.069 279.327 208.813C279.327 205.557 281.965 202.92 285.221 202.92Z" fill="#040302"/>
<path d="M292.958 201.381C291.43 201.429 290.064 202.468 289.767 204.275C289.726 204.526 289.838 204.754 290.018 204.783C290.198 204.813 290.377 204.633 290.418 204.382C290.623 203.134 291.674 202.346 292.91 202.308C293.094 202.302 293.243 202.092 293.259 201.839C293.275 201.586 293.142 201.375 292.958 201.381Z" fill="#040302"/>
<path d="M292.147 198.424C292.147 195.015 294.91 192.251 298.319 192.251C301.728 192.251 304.491 195.015 304.491 198.424C304.491 201.832 301.728 204.596 298.319 204.596C294.91 204.596 292.147 201.832 292.147 198.424Z" fill="white" fill-opacity="0.197876"/>
<path d="M298.32 191.975C294.759 191.975 291.873 194.861 291.873 198.423C291.873 201.984 294.759 204.87 298.32 204.87C301.882 204.87 304.768 201.984 304.768 198.423C304.768 194.861 301.882 191.975 298.32 191.975ZM298.32 192.529C301.576 192.529 304.214 195.167 304.214 198.423C304.214 201.678 301.576 204.316 298.32 204.316C295.064 204.316 292.427 201.678 292.427 198.423C292.427 195.167 295.064 192.529 298.32 192.529Z" fill="#040302"/>
<path d="M277.101 177.715C276.632 177.726 272.504 180.262 271.507 182.016C270.538 183.722 268.478 190.725 268.362 191.122C268.231 191.369 268.101 191.621 268.031 191.855C267.282 194.386 263.78 202.311 263.78 202.311L265.848 213.147L269.59 205.973L269.583 202.77C269.583 202.77 272.401 197.37 272.297 193.837C272.194 190.304 273.145 189.751 273.145 189.751L275.514 188.192C279.172 186.748 278.624 185.241 278.624 185.241C278.624 185.241 276.388 185.868 274.94 185.837C274.315 185.824 273.068 186.538 271.809 187.481C272.564 182.421 275.428 179.79 275.428 179.79L277.101 177.715Z" fill="#AF8E76"/>
<mask id="mask3_772_659" style="mask-type:luminance" maskUnits="userSpaceOnUse" x="263" y="177" width="16" height="37">
<path d="M277.101 177.715C276.632 177.726 272.504 180.262 271.507 182.016C270.538 183.722 268.478 190.725 268.362 191.122C268.231 191.369 268.101 191.621 268.031 191.855C267.282 194.386 263.78 202.311 263.78 202.311L265.848 213.147L269.59 205.973L269.583 202.77C269.583 202.77 272.401 197.37 272.297 193.837C272.194 190.304 273.145 189.751 273.145 189.751L275.514 188.192C279.172 186.748 278.624 185.241 278.624 185.241C278.624 185.241 276.388 185.868 274.94 185.837C274.315 185.824 273.068 186.538 271.809 187.481C272.564 182.421 275.428 179.79 275.428 179.79L277.101 177.715Z" fill="white"/>
</mask>
<g mask="url(#mask3_772_659)">
<path d="M269.643 202.805L269.734 206.051L266.033 213.126L269.643 202.805Z" fill="#8F735F"/>
</g>
<path d="M82.6978 115.535C82.6978 108.732 88.2129 103.216 95.0163 103.216H190.185C196.989 103.216 202.504 108.732 202.504 115.535V345.232C202.504 352.035 196.989 357.55 190.185 357.55H95.0163C88.2129 357.55 82.6978 352.035 82.6978 345.232V115.535Z" fill="url(#paint7_linear_772_659)"/>
<path d="M120.76 301.205C120.76 301.205 141.745 313.8 171.712 299.825L180.119 356.045C180.119 356.045 152.49 360.203 147.255 357.176L146.302 338.969L145.653 356.092C145.653 356.092 116.51 359.36 113.465 355.471C110.42 351.583 120.232 300.096 120.232 300.096" fill="url(#paint8_linear_772_659)"/>
<path d="M76.5127 133.215C76.5127 132.648 76.9866 132.174 77.5543 132.174C78.122 132.174 78.5959 132.648 78.5959 133.215V143.253C78.5959 143.82 78.122 144.294 77.5543 144.294C76.9866 144.294 76.5127 143.82 76.5127 143.253V133.215Z" fill="black"/>
<path d="M76.5127 152.059C76.5127 151.491 76.9866 151.018 77.5543 151.018C78.122 151.018 78.5959 151.491 78.5959 152.059V170.903C78.5959 171.471 78.122 171.945 77.5543 171.945C76.9866 171.945 76.5127 171.471 76.5127 170.903V152.059Z" fill="black"/>
<path d="M76.5127 176.489C76.5127 175.922 76.9866 175.448 77.5543 175.448C78.122 175.448 78.5959 175.922 78.5959 176.489V195.239C78.5959 195.807 78.122 196.375 77.5543 196.375C76.9866 196.375 76.5127 195.807 76.5127 195.239V176.489Z" fill="black"/>
<mask id="mask4_772_659" style="mask-type:luminance" maskUnits="userSpaceOnUse" x="207" y="158" width="3" height="33">
<path d="M207.23 158.112H209.667V190.408H207.23V158.112Z" fill="white"/>
</mask>
<g mask="url(#mask4_772_659)">
<path d="M207.515 159.256C207.515 158.687 207.989 158.215 208.556 158.215C209.124 158.215 209.598 158.687 209.598 159.256V188.99C209.598 189.651 209.124 190.125 208.556 190.125C207.989 190.125 207.515 189.651 207.515 188.99V159.256Z" fill="black"/>
</g>
<mask id="mask5_772_659" style="mask-type:luminance" maskUnits="userSpaceOnUse" x="77" y="97" width="132" height="265">
<path d="M77.6499 97.6108H208.412V361.99H77.6499V97.6108Z" fill="white"/>
</mask>
<g mask="url(#mask5_772_659)">
<path fill-rule="evenodd" clip-rule="evenodd" d="M94.3213 97.6108H191.411C200.599 97.6108 208.083 105.093 208.083 114.278V345.325C208.083 354.51 200.599 361.99 191.411 361.99H94.3213C85.1317 361.99 77.6499 354.51 77.6499 345.325V114.278C77.6499 105.093 85.1317 97.6108 94.3213 97.6108ZM98.1091 105.945H187.717C194.727 105.945 200.505 111.721 200.505 118.727V341.537C200.505 348.545 194.727 354.321 187.717 354.321H98.1091C91.0058 354.321 85.2271 348.545 85.2271 341.537V118.727C85.2271 111.721 91.0058 105.945 98.1091 105.945Z" fill="url(#paint9_linear_772_659)"/>
</g>
<path fill-rule="evenodd" clip-rule="evenodd" d="M95.7411 99.3154H189.991C198.895 99.3154 206.189 106.607 206.189 115.413V343.621C206.189 352.522 198.895 359.813 189.991 359.813H95.7411C86.8376 359.813 79.5435 352.522 79.5435 343.621V115.413C79.5435 106.607 86.8376 99.3154 95.7411 99.3154ZM175.024 105.945C175.024 106.228 175.024 106.513 175.024 106.891C175.024 111.058 171.615 114.467 167.447 114.467H118.001C113.833 114.467 110.423 111.058 110.423 106.891C110.423 106.513 110.519 106.228 110.519 105.945H98.1088C91.0055 105.945 85.2268 111.721 85.2268 118.727V341.537C85.2268 348.545 91.0055 354.321 98.1088 354.321H187.717C194.727 354.321 200.505 348.545 200.505 341.537V118.727C200.505 111.721 194.727 105.945 187.717 105.945H175.024Z" fill="url(#paint10_linear_772_659)"/>
<path d="M159.49 108.122C159.49 108.271 159.475 108.419 159.447 108.565C159.418 108.711 159.375 108.854 159.316 108.991C159.259 109.13 159.19 109.261 159.107 109.385C159.024 109.508 158.93 109.624 158.824 109.73C158.719 109.834 158.604 109.928 158.479 110.011C158.356 110.094 158.224 110.165 158.087 110.222C157.948 110.279 157.807 110.322 157.661 110.351C157.513 110.381 157.365 110.394 157.216 110.394C157.067 110.394 156.919 110.381 156.773 110.351C156.627 110.322 156.485 110.279 156.347 110.222C156.208 110.165 156.077 110.094 155.953 110.011C155.83 109.928 155.714 109.834 155.608 109.73C155.504 109.624 155.41 109.508 155.327 109.385C155.244 109.261 155.173 109.13 155.116 108.991C155.059 108.854 155.016 108.711 154.987 108.565C154.957 108.419 154.944 108.271 154.944 108.122C154.944 107.973 154.957 107.825 154.987 107.679C155.016 107.533 155.059 107.39 155.116 107.253C155.173 107.114 155.244 106.983 155.327 106.859C155.41 106.736 155.504 106.62 155.608 106.516C155.714 106.41 155.83 106.316 155.953 106.233C156.077 106.15 156.208 106.08 156.347 106.022C156.485 105.965 156.627 105.922 156.773 105.893C156.919 105.863 157.067 105.85 157.216 105.85C157.365 105.85 157.513 105.863 157.661 105.893C157.807 105.922 157.948 105.965 158.087 106.022C158.224 106.08 158.356 106.15 158.479 106.233C158.604 106.316 158.719 106.41 158.824 106.516C158.93 106.62 159.024 106.736 159.107 106.859C159.19 106.983 159.259 107.114 159.316 107.253C159.375 107.39 159.418 107.533 159.447 107.679C159.475 107.825 159.49 107.973 159.49 108.122Z" fill="#3E3E3E"/>
<path fill-rule="evenodd" clip-rule="evenodd" d="M142.602 107.365C143.122 107.365 143.637 107.371 144.148 107.384C144.659 107.394 145.154 107.413 145.636 107.437C146.116 107.46 146.572 107.49 147.006 107.524C147.439 107.559 147.839 107.597 148.206 107.642C148.576 107.685 148.903 107.734 149.193 107.785C149.482 107.837 149.726 107.891 149.926 107.95C150.125 108.007 150.276 108.065 150.377 108.127C150.479 108.188 150.53 108.25 150.53 108.311C150.53 108.373 150.479 108.434 150.377 108.496C150.276 108.557 150.125 108.616 149.926 108.673C149.726 108.731 149.482 108.785 149.193 108.837C148.903 108.888 148.576 108.936 148.206 108.98C147.839 109.025 147.439 109.064 147.006 109.097C146.572 109.133 146.116 109.162 145.636 109.185C145.154 109.21 144.659 109.227 144.148 109.239C143.637 109.251 143.122 109.257 142.602 109.257C142.08 109.257 141.565 109.251 141.054 109.239C140.543 109.227 140.048 109.21 139.566 109.185C139.086 109.162 138.629 109.133 138.197 109.097C137.763 109.064 137.363 109.025 136.995 108.98C136.626 108.936 136.298 108.888 136.009 108.837C135.72 108.785 135.475 108.731 135.277 108.673C135.077 108.616 134.926 108.557 134.824 108.496C134.723 108.434 134.672 108.373 134.672 108.311C134.672 108.25 134.723 108.188 134.824 108.127C134.926 108.065 135.077 108.007 135.277 107.95C135.475 107.891 135.72 107.837 136.009 107.785C136.298 107.734 136.626 107.685 136.995 107.642C137.363 107.597 137.763 107.559 138.197 107.524C138.629 107.49 139.086 107.46 139.566 107.437C140.048 107.413 140.543 107.394 141.054 107.384C141.565 107.371 142.08 107.365 142.602 107.365Z" fill="#3E3E3E"/>
<path opacity="0.208216" d="M127.104 130.027C127.104 126.137 130.257 122.983 134.148 122.983H213.095C216.986 122.983 220.14 126.137 220.14 130.027V214.038C220.14 217.929 216.986 221.083 213.095 221.083H134.148C130.257 221.083 127.104 217.929 127.104 214.038V130.027Z" fill="white" fill-opacity="0.623718"/>
<path opacity="0.253716" d="M69.2471 235.529C69.2471 232.365 71.8119 229.801 74.9756 229.801H137.362C140.525 229.801 143.09 232.365 143.09 235.529V263.665C143.09 266.829 140.525 269.393 137.362 269.393H74.9756C71.8119 269.393 69.2471 266.829 69.2471 263.665V235.529Z" fill="white" fill-opacity="0.623718"/>
<path opacity="0.505325" d="M45.9746 197.21C45.9746 195.157 47.6388 193.493 49.6917 193.493H65.53C67.583 193.493 69.2472 195.157 69.2472 197.21V212.812C69.2472 214.865 67.583 216.53 65.53 216.53C65.53 216.53 60.0363 216.53 56.0767 216.53L52.4755 221.083L49.6917 216.53C47.6388 216.53 45.9746 214.865 45.9746 212.812V197.21Z" fill="white" fill-opacity="0.623718"/>
<g opacity="0.559925">
<path d="M57.6108 211.144C57.6821 211.144 57.7633 211.125 57.8546 211.087C57.946 211.05 58.0272 211.008 58.0985 210.964C59.3545 210.162 60.4424 209.321 61.3622 208.442C62.2819 207.562 62.9923 206.658 63.4934 205.729C63.9945 204.801 64.245 203.862 64.245 202.913C64.245 202.321 64.1504 201.779 63.9611 201.286C63.7718 200.794 63.509 200.368 63.1727 200.007C62.8364 199.646 62.4423 199.368 61.9902 199.172C61.5381 198.976 61.0493 198.878 60.5237 198.878C59.8734 198.878 59.3011 199.044 58.8067 199.376C58.3123 199.707 57.9137 200.15 57.6108 200.702C57.3124 200.154 56.916 199.713 56.4216 199.379C55.9272 199.045 55.3526 198.878 54.6979 198.878C54.1723 198.878 53.6846 198.976 53.2347 199.172C52.7849 199.368 52.3907 199.646 52.0522 200.007C51.7137 200.368 51.4498 200.794 51.2605 201.286C51.0712 201.779 50.9766 202.321 50.9766 202.913C50.9766 203.862 51.2271 204.801 51.7282 205.729C52.2293 206.658 52.9408 207.562 53.8628 208.442C54.7847 209.321 55.8737 210.162 57.1298 210.964C57.201 211.008 57.2823 211.05 57.3736 211.087C57.4649 211.125 57.544 211.144 57.6108 211.144Z" fill="#FFD600"/>
</g>
<path opacity="0.505325" d="M180.168 80.1122C180.168 78.2135 181.707 76.6743 183.606 76.6743H198.254C200.153 76.6743 201.692 78.2135 201.692 80.1122V94.5428C201.692 96.4415 200.153 97.9807 198.254 97.9807C198.254 97.9807 193.173 97.9807 189.511 97.9807L186.18 102.192L183.606 97.9807C181.707 97.9807 180.168 96.4415 180.168 94.5428V80.1122Z" fill="white" fill-opacity="0.623718"/>
<g opacity="0.864086">
<path d="M190.93 93.0001C190.996 93.0001 191.071 92.9826 191.156 92.9476C191.24 92.9126 191.315 92.8745 191.381 92.8333C192.543 92.0918 193.549 91.3143 194.4 90.5007C195.25 89.6871 195.907 88.8509 196.371 87.992C196.834 87.1331 197.066 86.2649 197.066 85.3875C197.066 84.8396 196.978 84.3381 196.803 83.8829C196.628 83.4277 196.385 83.0333 196.074 82.6996C195.763 82.3659 195.399 82.1085 194.98 81.9272C194.562 81.746 194.11 81.6553 193.624 81.6553C193.023 81.6553 192.493 81.8088 192.036 82.1157C191.579 82.4226 191.21 82.8314 190.93 83.3422C190.654 82.8355 190.287 82.4277 189.83 82.1188C189.373 81.8098 188.841 81.6553 188.236 81.6553C187.75 81.6553 187.299 81.746 186.883 81.9272C186.467 82.1085 186.102 82.3659 185.789 82.6996C185.476 83.0333 185.232 83.4277 185.057 83.8829C184.882 84.3381 184.794 84.8396 184.794 85.3875C184.794 86.2649 185.026 87.1331 185.489 87.992C185.953 88.8509 186.611 89.6871 187.464 90.5007C188.316 91.3143 189.323 92.0918 190.485 92.8333C190.551 92.8745 190.626 92.9126 190.711 92.9476C190.795 92.9826 190.868 93.0001 190.93 93.0001Z" fill="white" fill-opacity="0.623718"/>
</g>
<g opacity="0.710001">
<path d="M68.4279 142.708C68.5002 142.708 68.562 142.683 68.6134 142.633C68.6647 142.584 68.6961 142.521 68.7075 142.445C68.7912 141.821 68.8835 141.294 68.9843 140.864C69.0851 140.434 69.2183 140.08 69.3838 139.803C69.5493 139.525 69.769 139.303 70.043 139.138C70.3169 138.972 70.665 138.842 71.0874 138.747C71.5097 138.652 72.0309 138.57 72.6511 138.502C72.731 138.49 72.7957 138.459 72.8451 138.407C72.8946 138.356 72.9193 138.292 72.9193 138.216C72.9193 138.14 72.8946 138.076 72.8451 138.025C72.7957 137.974 72.731 137.942 72.6511 137.931C72.0309 137.862 71.5097 137.781 71.0874 137.685C70.665 137.59 70.3169 137.46 70.043 137.294C69.769 137.129 69.5493 136.907 69.3838 136.63C69.2183 136.352 69.0851 135.998 68.9843 135.568C68.8835 135.138 68.7912 134.611 68.7075 133.987C68.6961 133.911 68.6647 133.849 68.6134 133.802C68.562 133.754 68.5002 133.73 68.4279 133.73C68.3556 133.73 68.2938 133.754 68.2424 133.802C68.191 133.849 68.1597 133.911 68.1482 133.987C68.0645 134.611 67.9723 135.138 67.8715 135.568C67.7706 135.998 67.6375 136.352 67.472 136.63C67.3065 136.907 67.0867 137.129 66.8128 137.294C66.5389 137.46 66.1907 137.59 65.7684 137.685C65.3461 137.781 64.8249 137.862 64.2047 137.931C64.1248 137.942 64.0601 137.974 64.0107 138.025C63.9612 138.076 63.9365 138.14 63.9365 138.216C63.9365 138.292 63.9612 138.356 64.0107 138.407C64.0601 138.459 64.1248 138.49 64.2047 138.502C64.8211 138.581 65.3404 138.671 65.7627 138.77C66.185 138.869 66.5322 139.001 66.8042 139.166C67.0763 139.332 67.295 139.551 67.4606 139.823C67.6261 140.095 67.7602 140.444 67.8629 140.87C67.9656 141.296 68.0607 141.821 68.1482 142.445C68.1597 142.521 68.191 142.584 68.2424 142.633C68.2938 142.683 68.3556 142.708 68.4279 142.708ZM64.5585 136.39C64.6118 136.39 64.6556 136.374 64.6898 136.341C64.724 136.309 64.745 136.268 64.7526 136.219C64.802 135.838 64.8534 135.541 64.9067 135.328C64.9599 135.115 65.0427 134.955 65.1549 134.846C65.2672 134.738 65.4346 134.654 65.6571 134.595C65.8797 134.536 66.1888 134.469 66.5845 134.392C66.6987 134.37 66.7557 134.305 66.7557 134.198C66.7557 134.145 66.7396 134.101 66.7072 134.067C66.6749 134.033 66.634 134.012 66.5845 134.004C66.1888 133.951 65.8788 133.897 65.6543 133.842C65.4298 133.787 65.2614 133.704 65.1492 133.593C65.037 133.483 64.9552 133.318 64.9038 133.097C64.8524 132.876 64.802 132.572 64.7526 132.184C64.7374 132.066 64.6727 132.007 64.5585 132.007C64.4444 132.007 64.3797 132.068 64.3645 132.19C64.3188 132.574 64.2694 132.872 64.2161 133.083C64.1629 133.294 64.0791 133.453 63.965 133.559C63.8509 133.666 63.6816 133.749 63.4571 133.807C63.2326 133.866 62.9244 133.932 62.5325 134.004C62.4184 134.027 62.3613 134.092 62.3613 134.198C62.3613 134.309 62.426 134.373 62.5554 134.392C62.9435 134.453 63.2488 134.512 63.4714 134.569C63.6939 134.626 63.8613 134.71 63.9736 134.82C64.0858 134.931 64.1676 135.094 64.219 135.311C64.2703 135.528 64.3188 135.827 64.3645 136.207C64.3797 136.329 64.4444 136.39 64.5585 136.39ZM67.3207 132.463C67.3854 132.463 67.4254 132.429 67.4406 132.361C67.4824 132.121 67.5214 131.934 67.5576 131.799C67.5937 131.664 67.646 131.562 67.7145 131.493C67.783 131.425 67.8857 131.371 68.0227 131.331C68.1597 131.291 68.3518 131.246 68.5991 131.197C68.6714 131.181 68.7075 131.141 68.7075 131.077C68.7075 131.012 68.6714 130.972 68.5991 130.957C68.3518 130.907 68.1606 130.863 68.0255 130.823C67.8905 130.783 67.7897 130.728 67.7231 130.657C67.6565 130.587 67.6051 130.484 67.569 130.349C67.5328 130.214 67.49 130.028 67.4406 129.793C67.4254 129.724 67.3854 129.69 67.3207 129.69C67.256 129.69 67.2161 129.724 67.2009 129.793C67.1514 130.028 67.1086 130.214 67.0725 130.349C67.0363 130.484 66.985 130.587 66.9184 130.657C66.8518 130.728 66.751 130.783 66.6159 130.823C66.4808 130.863 66.2897 130.907 66.0424 130.957C65.9701 130.972 65.9339 131.012 65.9339 131.077C65.9339 131.141 65.9701 131.181 66.0424 131.197C66.2897 131.246 66.4818 131.291 66.6188 131.331C66.7557 131.371 66.8585 131.426 66.9269 131.496C66.9954 131.567 67.0468 131.668 67.081 131.801C67.1153 131.935 67.1552 132.121 67.2009 132.361C67.2161 132.429 67.256 132.463 67.3207 132.463Z" fill="#FFD600"/>
</g>
<g opacity="0.724602">
<path d="M203.167 216.444C203.303 216.444 203.419 216.397 203.515 216.305C203.611 216.212 203.67 216.095 203.691 215.952C203.848 214.783 204.021 213.796 204.21 212.991C204.398 212.186 204.648 211.523 204.958 211.003C205.268 210.483 205.679 210.067 206.192 209.757C206.706 209.447 207.358 209.203 208.149 209.025C208.94 208.847 209.916 208.694 211.078 208.566C211.227 208.544 211.348 208.485 211.441 208.389C211.534 208.293 211.58 208.174 211.58 208.031C211.58 207.889 211.534 207.769 211.441 207.673C211.348 207.577 211.227 207.518 211.078 207.497C209.916 207.368 208.94 207.215 208.149 207.037C207.358 206.859 206.706 206.615 206.192 206.305C205.679 205.995 205.268 205.58 204.958 205.059C204.648 204.539 204.398 203.876 204.21 203.071C204.021 202.266 203.848 201.279 203.691 200.11C203.67 199.968 203.611 199.852 203.515 199.763C203.419 199.674 203.303 199.629 203.167 199.629C203.032 199.629 202.916 199.674 202.82 199.763C202.724 199.852 202.665 199.968 202.644 200.11C202.487 201.279 202.314 202.266 202.125 203.071C201.936 203.876 201.687 204.539 201.377 205.059C201.067 205.58 200.655 205.995 200.142 206.305C199.629 206.615 198.977 206.859 198.186 207.037C197.395 207.215 196.419 207.368 195.257 207.497C195.107 207.518 194.986 207.577 194.894 207.673C194.801 207.769 194.755 207.889 194.755 208.031C194.755 208.174 194.801 208.293 194.894 208.389C194.986 208.485 195.107 208.544 195.257 208.566C196.411 208.715 197.384 208.883 198.175 209.068C198.966 209.253 199.617 209.501 200.126 209.811C200.636 210.121 201.045 210.531 201.355 211.04C201.665 211.55 201.917 212.204 202.109 213.002C202.301 213.8 202.48 214.783 202.644 215.952C202.665 216.095 202.724 216.212 202.82 216.305C202.916 216.397 203.032 216.444 203.167 216.444ZM195.92 204.61C196.02 204.61 196.101 204.58 196.166 204.52C196.23 204.459 196.269 204.382 196.283 204.29C196.376 203.577 196.472 203.021 196.572 202.622C196.672 202.223 196.827 201.922 197.037 201.719C197.247 201.516 197.561 201.359 197.977 201.248C198.394 201.138 198.973 201.012 199.715 200.869C199.928 200.826 200.035 200.705 200.035 200.506C200.035 200.406 200.005 200.324 199.944 200.26C199.884 200.196 199.807 200.156 199.715 200.142C198.973 200.042 198.393 199.941 197.972 199.837C197.552 199.734 197.236 199.579 197.026 199.372C196.816 199.166 196.663 198.856 196.566 198.442C196.47 198.029 196.376 197.459 196.283 196.732C196.255 196.511 196.134 196.401 195.92 196.401C195.706 196.401 195.585 196.515 195.556 196.743C195.471 197.463 195.378 198.02 195.278 198.416C195.179 198.811 195.022 199.109 194.808 199.308C194.594 199.508 194.277 199.663 193.857 199.773C193.436 199.884 192.859 200.007 192.125 200.142C191.911 200.185 191.804 200.306 191.804 200.506C191.804 200.712 191.925 200.833 192.168 200.869C192.895 200.983 193.466 201.093 193.883 201.2C194.3 201.307 194.614 201.464 194.824 201.671C195.034 201.877 195.187 202.184 195.284 202.59C195.38 202.996 195.471 203.556 195.556 204.268C195.585 204.496 195.706 204.61 195.92 204.61ZM201.094 197.256C201.215 197.256 201.289 197.192 201.318 197.063C201.396 196.615 201.469 196.264 201.537 196.011C201.605 195.758 201.703 195.567 201.831 195.439C201.959 195.31 202.152 195.209 202.408 195.134C202.665 195.059 203.025 194.975 203.488 194.883C203.623 194.854 203.691 194.779 203.691 194.658C203.691 194.537 203.623 194.462 203.488 194.434C203.025 194.341 202.667 194.257 202.414 194.183C202.161 194.108 201.972 194.004 201.847 193.873C201.722 193.741 201.626 193.548 201.559 193.295C201.491 193.042 201.411 192.695 201.318 192.253C201.289 192.125 201.215 192.061 201.094 192.061C200.972 192.061 200.898 192.125 200.869 192.253C200.776 192.695 200.696 193.042 200.629 193.295C200.561 193.548 200.465 193.741 200.34 193.873C200.215 194.004 200.026 194.108 199.773 194.183C199.52 194.257 199.162 194.341 198.699 194.434C198.564 194.462 198.496 194.537 198.496 194.658C198.496 194.779 198.564 194.854 198.699 194.883C199.162 194.975 199.522 195.059 199.779 195.134C200.035 195.209 200.228 195.312 200.356 195.444C200.484 195.576 200.58 195.766 200.645 196.016C200.709 196.265 200.784 196.615 200.869 197.063C200.898 197.192 200.972 197.256 201.094 197.256Z" fill="#FFD600"/>
</g>
<path d="M124.113 219.758C124.113 219.758 100.878 173.817 133.692 166.948C133.692 166.948 151.68 161.34 163.349 186.563C163.349 186.563 163.844 189.93 172.036 197.828C172.036 197.828 192.037 219.913 180.398 234.303C180.398 234.303 122.331 245.694 124.113 219.758Z" fill="black"/>
<path d="M122.979 177.85C122.979 177.85 108.338 210.059 135.098 207.288L136.971 223.203C136.971 223.203 140.983 231.533 148.979 221.114L146.307 203.459L145.889 200.613C145.889 200.613 151.9 204.275 153.496 195.586C153.496 195.586 148.131 197.973 143.329 183.584C138.527 169.195 132.887 171.314 132.887 171.314C132.887 171.314 124.191 172.382 122.979 177.85Z" fill="#F4AF7E"/>
<path d="M136.773 220.774C136.773 220.774 140.537 228.391 148.676 218.697C148.676 218.697 172.371 223.192 178.865 233.834C178.865 233.834 230.507 279.202 198.819 281.123C198.819 281.123 183.296 280.1 169.573 259.267L171.601 299.504C171.601 299.504 151.383 313.206 120.565 301.012C120.565 301.012 108.357 265.256 116.396 241.711C116.396 241.711 113.503 252.881 113.989 256.674C113.989 256.674 87.7161 294.159 76.8618 268.308C76.8618 268.308 71.649 252.355 81.5553 241.37C81.5553 241.37 91.4864 243.836 94.3752 239.53C94.3752 239.53 95.3376 246.393 94.8688 254.495C94.8688 254.495 95.7944 247.57 94.8448 242.351C94.8448 242.351 120.717 208.551 136.773 220.774Z" fill="url(#paint11_linear_772_659)"/>
<path d="M82.8934 241.406C82.8934 241.406 86.8055 234.293 81.3681 224.409C81.3681 224.409 79.573 219.708 81.7235 219.681C81.7235 219.681 81.0731 215.333 83.3198 215.935C83.3198 215.935 83.1919 211.477 86.9947 211.935C86.9947 211.935 86.5056 208.133 89.7947 208.912C93.0838 209.691 96.0902 212.769 96.0902 212.769C96.0902 212.769 98.1287 209.892 99.8638 212.475C101.599 215.058 103.444 215.928 99.4286 224.523C95.4142 233.117 97.2631 232.381 94.5905 234.885C94.5905 234.885 93.545 239.213 93.545 240.378C93.545 240.378 90.0703 245.457 82.8934 241.406Z" fill="#F4AF7E"/>
<path d="M187.48 241.56C187.48 241.56 187.287 239.516 185.978 237.26C184.669 235.005 182.351 230.264 182.201 224.822C182.051 219.38 180.884 216.132 180.884 216.132C180.884 216.132 184.544 214.934 185.066 217.932C185.588 220.931 187.149 228.449 188.446 219.118C189.742 209.787 190.908 200.021 193.34 204.548C193.34 204.548 196.766 200.072 196.184 205.405C195.602 210.738 195.685 214.463 195.685 214.463C195.685 214.463 196.364 203.354 198.931 206.345C198.931 206.345 199.375 213.769 198.868 216.896C198.361 220.023 198.226 222.11 200.525 219.089C202.825 216.068 204.206 210.745 206.023 213.568C206.023 213.568 202.527 222.219 202.38 223.297C202.233 224.374 199.008 230.197 198.606 231.422C198.205 232.647 197.22 237.707 197.22 238.897C197.22 240.087 192.321 245.596 187.48 241.56Z" fill="#F4AF7E"/>
<path d="M186.926 239.03L187.623 241.652C187.623 241.652 192.133 245.634 197.533 239.182C197.533 239.182 197.436 237.111 197.82 236.028C198.204 234.944 199.862 238.242 200.066 242.264C200.066 242.264 221.652 271.518 205.968 279.459C205.968 279.459 197.254 286.205 190.891 274.717C184.529 263.229 187.895 252.564 187.162 247.285C186.43 242.006 184.323 235.97 186.926 239.03Z" fill="url(#paint12_linear_772_659)"/>
<path d="M81.6401 169.225C81.6401 169.225 89.7117 191.817 111.757 195.738C111.757 195.738 122.721 196.619 119.2 208.923C119.2 208.923 114.175 219.026 102.77 209.844C92.5921 201.649 76.4815 199.868 66.944 205.211C66.4214 205.503 65.8219 205.867 66.7979 204.944C71.8166 200.202 81.4005 188.628 81.6401 169.225Z" fill="#FCE3A7"/>
<path d="M107.09 194.424C107.09 194.424 103.088 206.841 100.678 208.807C100.678 208.807 102.494 210.475 103.355 210.218C104.215 209.96 109.57 200.883 109.893 195.213C109.893 195.213 107.647 194.172 107.09 194.424Z" fill="#97611B"/>
<path d="M111.728 195.467C111.728 195.467 108.583 208.483 104.848 211.303C104.848 211.303 113.904 218.045 118.852 209.889C118.852 209.889 124.975 198.171 111.728 195.467Z" fill="#97611B"/>
<path d="M82.5625 224.549L87.0677 224.014L90.1873 227.887C90.1873 227.887 84.4783 233.199 82.5625 224.549Z" fill="#97611B"/>
<path d="M90.7891 208.912C90.7891 208.912 92.9242 204.482 92.7816 203.176C92.639 201.87 101.505 204.605 101.816 208.616L99.6503 211.937C99.6503 211.937 96.5494 210.616 96.2815 212.852C96.2815 212.852 94.2076 209.976 91.205 209.193L90.6851 208.85L91.2752 209.19L90.7891 208.912Z" fill="#97611B"/>
<path d="M66.3538 184.348C70.7659 174.043 77.0446 166.846 80.3776 168.273C81.7715 168.87 82.4295 170.881 82.4005 173.772C82.3601 177.794 80.9905 183.521 78.4236 189.516C74.0114 199.82 67.7327 207.017 64.3997 205.59C61.0667 204.163 61.9416 194.652 66.3538 184.348Z" fill="#FCE3A7"/>
<path d="M79.1062 167.202C75.0696 167.624 69.5497 174.554 65.5121 183.984C60.8977 194.761 59.9825 204.696 64.0399 206.433C68.0974 208.17 74.657 200.657 79.2714 189.88C81.8152 183.939 83.2788 178.054 83.3217 173.78C83.3548 170.474 82.5373 168.202 80.7364 167.431C80.2292 167.214 79.6829 167.141 79.1062 167.202ZM79.5515 169.011C79.72 169.02 79.8776 169.059 80.0183 169.119C80.9346 169.511 81.5097 171.126 81.4832 173.765C81.4431 177.771 80.032 183.42 77.5766 189.155C75.4647 194.087 72.8616 198.431 70.3164 201.348C67.9429 204.069 65.8903 205.227 64.7653 204.745C63.6402 204.263 63.0557 201.978 63.3864 198.383C63.7411 194.527 65.0877 189.642 67.1997 184.709C69.3117 179.777 71.9147 175.433 74.46 172.516C76.5367 170.135 78.3722 168.947 79.5515 169.011Z" fill="#97611B"/>
<path d="M79.7397 185.089C79.7397 185.089 76.1818 181.674 72.6159 187.246C69.9178 191.462 72.0359 197.701 75.4912 196.188C75.4912 196.188 79.5963 185.337 79.7397 185.089Z" fill="#97611B"/>
<g opacity="0.591087">
<path d="M96.3414 317.347C95.7068 317.347 95.1924 317.862 95.1924 318.497C95.1924 319.131 95.7068 319.645 96.3414 319.646H189.842C190.476 319.646 190.991 319.131 190.991 318.497C190.991 317.862 190.476 317.347 189.842 317.347H96.3414Z" fill="#AF9761"/>
<path d="M95.8433 317.347C95.4838 317.347 95.1924 317.862 95.1924 318.497C95.1924 319.131 95.4838 319.645 95.8433 319.646H148.812C149.171 319.646 149.462 319.131 149.462 318.497C149.462 317.862 149.171 317.347 148.812 317.347H95.8433Z" fill="#FCE29B"/>
<path d="M143.302 340.858C144.208 340.858 145.061 340.685 145.861 340.338C146.661 339.991 147.367 339.512 147.979 338.9C148.59 338.289 149.069 337.583 149.416 336.783C149.763 335.983 149.937 335.13 149.937 334.223C149.937 333.317 149.763 332.464 149.416 331.664C149.069 330.864 148.59 330.158 147.979 329.546C147.367 328.935 146.66 328.456 145.858 328.109C145.056 327.762 144.201 327.588 143.295 327.588C142.389 327.588 141.536 327.762 140.736 328.109C139.935 328.456 139.231 328.935 138.621 329.546C138.012 330.158 137.534 330.864 137.187 331.664C136.84 332.464 136.667 333.317 136.667 334.223C136.667 335.13 136.84 335.983 137.187 336.783C137.534 337.583 138.013 338.289 138.625 338.9C139.236 339.512 139.942 339.991 140.742 340.338C141.542 340.685 142.395 340.858 143.302 340.858ZM145.884 334.594L142.059 336.845C141.903 336.94 141.752 336.956 141.607 336.894C141.462 336.831 141.389 336.719 141.389 336.559V331.895C141.389 331.734 141.465 331.626 141.617 331.569C141.769 331.513 141.916 331.526 142.059 331.608L145.884 333.872C146.018 333.954 146.087 334.074 146.089 334.23C146.091 334.386 146.023 334.507 145.884 334.594Z" fill="#AF9760"/>
<path d="M169.338 338.033H170.405C170.61 338.033 170.766 337.98 170.87 337.874C170.975 337.768 171.027 337.612 171.027 337.407V331.035C171.027 330.823 170.975 330.667 170.87 330.565C170.766 330.464 170.61 330.413 170.405 330.413H169.338C169.135 330.413 168.981 330.466 168.875 330.572C168.769 330.678 168.716 330.833 168.716 331.035V337.407C168.716 337.612 168.769 337.768 168.875 337.874C168.981 337.98 169.135 338.033 169.338 338.033ZM162.962 337.893C163.059 337.893 163.15 337.878 163.234 337.849C163.318 337.819 163.407 337.776 163.5 337.72L168.267 334.918C168.432 334.818 168.552 334.711 168.627 334.595C168.702 334.48 168.739 334.355 168.739 334.221C168.739 334.087 168.702 333.962 168.627 333.847C168.552 333.731 168.432 333.624 168.267 333.524L163.5 330.717C163.404 330.661 163.314 330.618 163.231 330.589C163.149 330.559 163.059 330.544 162.962 330.544C162.778 330.544 162.62 330.613 162.488 330.75C162.355 330.887 162.289 331.087 162.289 331.349V337.093C162.289 337.355 162.355 337.554 162.488 337.69C162.62 337.825 162.778 337.893 162.962 337.893Z" fill="#AF9760"/>
<path d="M116.263 338.033H115.196C114.991 338.033 114.836 337.98 114.731 337.874C114.627 337.768 114.574 337.612 114.574 337.407V331.035C114.574 330.823 114.627 330.667 114.731 330.565C114.836 330.464 114.991 330.413 115.196 330.413H116.263C116.466 330.413 116.62 330.466 116.726 330.572C116.832 330.678 116.885 330.833 116.885 331.035V337.407C116.885 337.612 116.832 337.768 116.726 337.874C116.62 337.98 116.466 338.033 116.263 338.033ZM122.639 337.893C122.542 337.893 122.452 337.878 122.367 337.849C122.283 337.819 122.194 337.776 122.101 337.72L117.334 334.918C117.169 334.818 117.049 334.711 116.974 334.595C116.899 334.48 116.862 334.355 116.862 334.221C116.862 334.087 116.899 333.962 116.974 333.847C117.049 333.731 117.169 333.624 117.334 333.524L122.101 330.717C122.197 330.661 122.287 330.618 122.37 330.589C122.452 330.559 122.542 330.544 122.639 330.544C122.823 330.544 122.981 330.613 123.113 330.75C123.246 330.887 123.312 331.087 123.312 331.349V337.093C123.312 337.355 123.246 337.554 123.113 337.69C122.981 337.825 122.823 337.893 122.639 337.893Z" fill="#AF9760"/>
</g>
<g opacity="0.824233">
<path d="M183.878 187.766C184.052 187.766 184.219 187.729 184.376 187.654C184.534 187.578 184.7 187.458 184.875 187.293L190.62 181.869C190.76 181.738 190.857 181.605 190.911 181.469C190.964 181.333 190.991 181.206 190.991 181.09C190.991 180.969 190.964 180.84 190.911 180.704C190.857 180.568 190.76 180.435 190.62 180.304L184.875 174.931C184.681 174.746 184.512 174.614 184.369 174.534C184.226 174.454 184.067 174.414 183.892 174.414C183.635 174.414 183.425 174.501 183.262 174.676C183.1 174.85 183.018 175.059 183.018 175.302V178.054H182.807C181.502 178.054 180.374 178.255 179.425 178.658C178.477 179.061 177.698 179.644 177.088 180.406C176.479 181.168 176.028 182.086 175.734 183.161C175.44 184.236 175.294 185.446 175.294 186.791C175.294 187.106 175.37 187.348 175.523 187.515C175.676 187.683 175.849 187.766 176.044 187.766C176.199 187.766 176.355 187.735 176.513 187.672C176.671 187.609 176.813 187.461 176.939 187.228C177.361 186.432 177.849 185.809 178.403 185.36C178.956 184.911 179.594 184.594 180.317 184.41C181.041 184.226 181.871 184.133 182.807 184.133H183.018V186.915C183.018 187.162 183.1 187.366 183.262 187.526C183.425 187.686 183.63 187.766 183.878 187.766ZM184.293 186.201C184.225 186.201 184.191 186.165 184.191 186.092V183.274C184.191 183.114 184.111 183.034 183.95 183.034H182.975C181.82 183.034 180.806 183.159 179.935 183.409C179.064 183.659 178.337 184.012 177.755 184.468C177.172 184.924 176.738 185.456 176.451 186.063C176.442 186.087 176.432 186.105 176.422 186.117C176.412 186.129 176.398 186.136 176.378 186.136C176.345 186.136 176.328 186.109 176.328 186.055C176.357 185.371 176.446 184.695 176.597 184.028C176.747 183.36 176.979 182.733 177.292 182.146C177.605 181.558 178.014 181.04 178.519 180.591C179.024 180.142 179.643 179.79 180.376 179.536C181.109 179.281 181.975 179.153 182.975 179.153H183.95C184.111 179.153 184.191 179.073 184.191 178.913V176.023C184.191 175.955 184.227 175.921 184.3 175.921C184.319 175.921 184.34 175.927 184.362 175.939C184.384 175.951 184.404 175.964 184.424 175.979L189.608 180.952C189.656 181 189.68 181.046 189.68 181.09C189.68 181.109 189.675 181.13 189.666 181.152C189.656 181.174 189.637 181.199 189.608 181.228L184.416 186.136C184.378 186.179 184.336 186.201 184.293 186.201Z" fill="#FCE29B"/>
</g>
<path opacity="0.191684" d="M94.9778 0H192.769L279.226 361.8L7.37891 362.18L94.9778 0Z" fill="url(#paint13_linear_772_659)"/>
</g>
<defs>
<linearGradient id="paint0_linear_772_659" x1="238.526" y1="77.1038" x2="298.277" y2="397.249" gradientUnits="userSpaceOnUse">
<stop stop-color="#424241"/>
<stop offset="1"/>
</linearGradient>
<linearGradient id="paint1_linear_772_659" x1="302.83" y1="23.84" x2="307.68" y2="286.775" gradientUnits="userSpaceOnUse">
<stop stop-color="#5C5B5B"/>
<stop offset="1" stop-color="#1F1F1F"/>
</linearGradient>
<linearGradient id="paint2_linear_772_659" x1="293.129" y1="-70.4812" x2="294.725" y2="136.699" gradientUnits="userSpaceOnUse">
<stop stop-color="#6B6B6B"/>
<stop offset="1"/>
</linearGradient>
<linearGradient id="paint3_linear_772_659" x1="295.03" y1="315.628" x2="291.782" y2="358.353" gradientUnits="userSpaceOnUse">
<stop stop-color="#434343"/>
<stop offset="1" stop-opacity="0"/>
</linearGradient>
<linearGradient id="paint4_linear_772_659" x1="299.88" y1="315.311" x2="302.149" y2="356.695" gradientUnits="userSpaceOnUse">
<stop stop-color="#040302"/>
<stop offset="1" stop-opacity="0"/>
</linearGradient>
<linearGradient id="paint5_linear_772_659" x1="26.8341" y1="151.905" x2="296.458" y2="259.439" gradientUnits="userSpaceOnUse">
<stop stop-color="#AF9760"/>
<stop offset="1"/>
</linearGradient>
<linearGradient id="paint6_linear_772_659" x1="340.868" y1="341.017" x2="338.176" y2="324.527" gradientUnits="userSpaceOnUse">
<stop stop-color="#090909"/>
<stop offset="1"/>
</linearGradient>
<linearGradient id="paint7_linear_772_659" x1="146.912" y1="128.343" x2="148.984" y2="359.483" gradientUnits="userSpaceOnUse">
<stop stop-color="#DBC886"/>
<stop offset="1" stop-color="#4B2800"/>
</linearGradient>
<linearGradient id="paint8_linear_772_659" x1="140.559" y1="316.157" x2="142.93" y2="376.601" gradientUnits="userSpaceOnUse">
<stop stop-color="#97611B"/>
<stop offset="1" stop-opacity="0"/>
</linearGradient>
<linearGradient id="paint9_linear_772_659" x1="148.731" y1="23.84" x2="153.581" y2="286.775" gradientUnits="userSpaceOnUse">
<stop stop-color="#FFB018"/>
<stop offset="1"/>
</linearGradient>
<linearGradient id="paint10_linear_772_659" x1="139.03" y1="-70.4812" x2="140.627" y2="136.699" gradientUnits="userSpaceOnUse">
<stop stop-color="#FF9C00"/>
<stop offset="1"/>
</linearGradient>
<linearGradient id="paint11_linear_772_659" x1="125.636" y1="226.27" x2="174.806" y2="336.468" gradientUnits="userSpaceOnUse">
<stop stop-color="#F5C242"/>
<stop offset="1" stop-color="#97611B"/>
</linearGradient>
<linearGradient id="paint12_linear_772_659" x1="191.006" y1="242.772" x2="204.8" y2="284.816" gradientUnits="userSpaceOnUse">
<stop stop-color="#F5C242"/>
<stop offset="1" stop-color="#97611B"/>
</linearGradient>
<linearGradient id="paint13_linear_772_659" x1="140.863" y1="-19.1829" x2="127.044" y2="332.483" gradientUnits="userSpaceOnUse">
<stop stop-color="#FFD600"/>
<stop offset="1" stop-color="#FFD600" stop-opacity="0"/>
</linearGradient>
<clipPath id="clip0_772_659">
<rect width="406.39" height="362.18" fill="white"/>
</clipPath>
</defs>
</svg>
